<?xml version="1.0" encoding="UTF-8"?>
<svg xmlns="http://www.w3.org/2000/svg" xmlns:xlink="http://www.w3.org/1999/xlink" width="30px" height="px" viewBox="0 0 30 30" version="1.1">
<g id="surface1">
<path style=" stroke:none;fill-rule:nonzero;fill:rgb(3.921569%,81.176472%,51.372552%);fill-opacity:1;" d="M 10.664062 30.234375 C 13.453125 30.234375 15.703125 27.984375 15.703125 25.195312 L 15.703125 20.15625 L 10.664062 20.15625 C 7.875 20.15625 5.625 22.40625 5.625 25.195312 C 5.625 27.984375 7.875 30.234375 10.664062 30.234375 Z M 10.664062 30.234375 "/>
<path style=" stroke:none;fill-rule:nonzero;fill:rgb(63.529414%,34.901962%,100%);fill-opacity:1;" d="M 5.625 15.117188 C 5.625 12.328125 7.875 10.078125 10.664062 10.078125 L 15.703125 10.078125 L 15.703125 20.15625 L 10.664062 20.15625 C 7.875 20.15625 5.625 17.90625 5.625 15.117188 Z M 5.625 15.117188 "/>
<path style=" stroke:none;fill-rule:nonzero;fill:rgb(94.901961%,30.588236%,11.764706%);fill-opacity:1;" d="M 5.625 5.039062 C 5.625 2.25 7.875 0 10.664062 0 L 15.703125 0 L 15.703125 10.078125 L 10.664062 10.078125 C 7.875 10.078125 5.625 7.828125 5.625 5.039062 Z M 5.625 5.039062 "/>
<path style=" stroke:none;fill-rule:nonzero;fill:rgb(100%,44.705883%,38.431373%);fill-opacity:1;" d="M 15.703125 0 L 20.742188 0 C 23.53125 0 25.78125 2.25 25.78125 5.039062 C 25.78125 7.828125 23.53125 10.078125 20.742188 10.078125 L 15.703125 10.078125 Z M 15.703125 0 "/>
<path style=" stroke:none;fill-rule:nonzero;fill:rgb(10.196079%,73.725492%,99.607843%);fill-opacity:1;" d="M 25.78125 15.117188 C 25.78125 17.90625 23.53125 20.15625 20.742188 20.15625 C 17.953125 20.15625 15.703125 17.90625 15.703125 15.117188 C 15.703125 12.328125 17.953125 10.078125 20.742188 10.078125 C 23.53125 10.078125 25.78125 12.328125 25.78125 15.117188 Z M 25.78125 15.117188 "/>
</g>
</svg>
