<?xml version="1.0" encoding="UTF-8"?>
<svg xmlns="http://www.w3.org/2000/svg" xmlns:xlink="http://www.w3.org/1999/xlink" width="30px" height="px" viewBox="0 0 30 30" version="1.1">
<g id="surface1">
<path style=" stroke:none;fill-rule:nonzero;fill:rgb(90.196079%,29.019609%,9.803922%);fill-opacity:1;" d="M 12.347656 2.652344 L 11.042969 3.957031 L 12.835938 5.746094 L 14.710938 7.621094 C 15.578125 7.191406 16.605469 7.242188 17.429688 7.753906 C 18.25 8.265625 18.75 9.164062 18.75 10.132812 C 18.738281 10.558594 18.640625 10.976562 18.460938 11.363281 L 20.390625 13.238281 C 21.433594 12.632812 22.761719 12.859375 23.550781 13.773438 C 24.089844 14.289062 24.390625 15.007812 24.375 15.757812 C 24.375 16.496094 24.085938 17.203125 23.574219 17.734375 C 23.046875 18.28125 22.320312 18.585938 21.5625 18.570312 C 20.8125 18.582031 20.09375 18.289062 19.566406 17.757812 C 18.65625 16.960938 18.433594 15.632812 19.039062 14.585938 L 17.164062 12.65625 C 17.070312 12.699219 16.972656 12.738281 16.875 12.769531 L 16.875 18.75 C 17.417969 18.945312 17.890625 19.300781 18.226562 19.773438 C 18.566406 20.242188 18.75 20.804688 18.75 21.382812 C 18.765625 22.136719 18.464844 22.859375 17.925781 23.378906 C 17.417969 23.890625 16.726562 24.183594 16.007812 24.195312 C 14.945312 24.230469 13.953125 23.65625 13.453125 22.714844 C 12.953125 21.777344 13.027344 20.636719 13.648438 19.773438 C 13.984375 19.300781 14.457031 18.945312 15 18.75 L 15 12.769531 C 14.453125 12.578125 13.984375 12.21875 13.648438 11.746094 C 13.308594 11.277344 13.125 10.714844 13.125 10.132812 C 13.125 9.707031 13.222656 9.289062 13.414062 8.90625 L 9.757812 5.25 L 2.652344 12.347656 C 1.1875 13.8125 1.1875 16.1875 2.652344 17.652344 L 12.347656 27.347656 C 13.8125 28.8125 16.1875 28.8125 17.652344 27.347656 L 27.347656 17.652344 C 28.8125 16.1875 28.8125 13.8125 27.347656 12.347656 L 17.652344 2.652344 C 16.1875 1.1875 13.8125 1.1875 12.347656 2.652344 "/>
</g>
</svg>
