<?xml version="1.0" encoding="UTF-8"?>
<svg xmlns="http://www.w3.org/2000/svg" xmlns:xlink="http://www.w3.org/1999/xlink" width="30px" height="30px" viewBox="0 0 30 30" version="1.1">
<g id="surface1">
<path style=" stroke:none;fill-rule:nonzero;fill:rgb(32.549021%,50.980395%,63.137257%);fill-opacity:1;" d="M 11.058594 23.191406 C 11.058594 23.191406 9.914062 23.855469 11.875 24.082031 C 14.246094 24.351562 15.460938 24.3125 18.074219 23.820312 C 18.074219 23.820312 18.761719 24.25 19.722656 24.625 C 13.859375 27.136719 6.453125 24.476562 11.058594 23.191406 M 10.34375 19.914062 C 10.34375 19.914062 9.058594 20.863281 11.019531 21.066406 C 13.554688 21.328125 15.558594 21.347656 19.019531 20.679688 C 19.019531 20.679688 19.5 21.167969 20.253906 21.433594 C 13.164062 23.503906 5.269531 21.597656 10.34375 19.914062 "/>
<path style=" stroke:none;fill-rule:nonzero;fill:rgb(90.588236%,43.529412%,0%);fill-opacity:1;" d="M 16.382812 14.351562 C 17.828125 16.015625 16.003906 17.511719 16.003906 17.511719 C 16.003906 17.511719 19.671875 15.617188 17.984375 13.246094 C 16.414062 11.035156 15.207031 9.9375 21.738281 6.148438 C 21.738281 6.148438 11.484375 8.710938 16.382812 14.351562 "/>
<path style=" stroke:none;fill-rule:nonzero;fill:rgb(32.549021%,50.980395%,63.137257%);fill-opacity:1;" d="M 24.136719 25.617188 C 24.136719 25.617188 24.984375 26.3125 23.203125 26.855469 C 19.820312 27.878906 9.121094 28.1875 6.148438 26.894531 C 5.078125 26.429688 7.082031 25.785156 7.710938 25.648438 C 8.371094 25.507812 8.746094 25.535156 8.746094 25.535156 C 7.558594 24.695312 1.066406 27.175781 5.449219 27.886719 C 17.398438 29.824219 27.234375 27.015625 24.136719 25.617188 M 11.609375 16.515625 C 11.609375 16.515625 6.167969 17.808594 9.683594 18.277344 C 11.167969 18.476562 14.125 18.429688 16.882812 18.199219 C 19.132812 18.011719 21.394531 17.605469 21.394531 17.605469 C 21.394531 17.605469 20.601562 17.945312 20.027344 18.339844 C 14.5 19.792969 3.824219 19.117188 6.898438 17.628906 C 9.496094 16.375 11.609375 16.515625 11.609375 16.515625 M 21.375 21.972656 C 26.992188 19.054688 24.394531 16.246094 22.582031 16.625 C 22.136719 16.71875 21.9375 16.796875 21.9375 16.796875 C 21.9375 16.796875 22.101562 16.539062 22.417969 16.429688 C 26.003906 15.167969 28.765625 20.148438 21.261719 22.121094 C 21.261719 22.121094 21.347656 22.042969 21.375 21.972656 "/>
<path style=" stroke:none;fill-rule:nonzero;fill:rgb(90.588236%,43.529412%,0%);fill-opacity:1;" d="M 17.984375 0.03125 C 17.984375 0.03125 21.097656 3.144531 15.035156 7.929688 C 10.171875 11.769531 13.925781 13.960938 15.03125 16.460938 C 12.195312 13.902344 10.113281 11.648438 11.507812 9.546875 C 13.558594 6.46875 19.242188 4.976562 17.984375 0.03125 "/>
<path style=" stroke:none;fill-rule:nonzero;fill:rgb(32.549021%,50.980395%,63.137257%);fill-opacity:1;" d="M 12.160156 29.882812 C 17.554688 30.230469 25.835938 29.691406 26.03125 27.140625 C 26.03125 27.140625 25.65625 28.109375 21.574219 28.875 C 16.972656 29.742188 11.296875 29.640625 7.929688 29.085938 C 7.929688 29.085938 8.617188 29.65625 12.160156 29.882812 "/>
</g>
</svg>
