<?xml version="1.0" encoding="UTF-8"?>
<svg xmlns="http://www.w3.org/2000/svg" xmlns:xlink="http://www.w3.org/1999/xlink" width="30px" height="px" viewBox="0 0 30 30" version="1.1">
<g id="surface1">
<path style=" stroke:none;fill-rule:nonzero;fill:rgb(30.588236%,30.588236%,30.588236%);fill-opacity:1;" d="M 3.257812 15.640625 L 3.257812 12.367188 L 3.972656 12.367188 L 3.972656 15.890625 C 4.039062 16.464844 3.871094 17.042969 3.503906 17.488281 C 3.167969 17.78125 2.734375 17.9375 2.289062 17.929688 L 2.214844 17.398438 C 2.5 17.398438 2.777344 17.292969 2.992188 17.101562 C 3.183594 16.875 3.257812 16.574219 3.257812 15.640625 Z M 8.582031 15.222656 C 8.582031 15.621094 8.582031 15.976562 8.613281 16.285156 L 7.980469 16.285156 L 7.9375 15.652344 C 7.667969 16.109375 7.171875 16.386719 6.640625 16.375 C 6.023438 16.375 5.289062 16.039062 5.289062 14.671875 L 5.289062 12.398438 L 6.003906 12.398438 L 6.003906 14.527344 C 6.003906 15.269531 6.230469 15.765625 6.875 15.765625 C 7.144531 15.765625 7.402344 15.660156 7.589844 15.472656 C 7.78125 15.28125 7.886719 15.027344 7.882812 14.757812 L 7.882812 12.371094 L 8.597656 12.371094 L 8.597656 15.199219 Z M 9.933594 13.664062 C 9.933594 13.171875 9.933594 12.765625 9.902344 12.398438 L 10.539062 12.398438 L 10.570312 13.0625 C 10.863281 12.574219 11.398438 12.28125 11.96875 12.308594 C 12.914062 12.308594 13.628906 13.101562 13.628906 14.28125 C 13.628906 15.679688 12.773438 16.371094 11.84375 16.371094 C 11.363281 16.390625 10.902344 16.160156 10.636719 15.757812 L 10.636719 17.886719 L 9.933594 17.886719 Z M 10.636719 14.703125 C 10.636719 14.800781 10.648438 14.898438 10.667969 14.992188 C 10.792969 15.476562 11.230469 15.816406 11.734375 15.816406 C 12.484375 15.816406 12.925781 15.203125 12.925781 14.316406 C 12.925781 13.539062 12.511719 12.871094 11.757812 12.871094 C 11.144531 12.921875 10.664062 13.421875 10.636719 14.039062 Z M 14.902344 12.394531 L 15.757812 14.691406 C 15.847656 14.953125 15.933594 15.214844 16.007812 15.484375 C 16.082031 15.25 16.164062 14.949219 16.257812 14.671875 L 17.035156 12.394531 L 17.785156 12.394531 L 16.722656 15.164062 C 16.1875 16.496094 15.863281 17.183594 15.375 17.597656 C 15.128906 17.824219 14.828125 17.980469 14.5 18.054688 L 14.324219 17.457031 C 14.554688 17.382812 14.765625 17.265625 14.949219 17.113281 C 15.207031 16.902344 15.414062 16.632812 15.550781 16.324219 C 15.578125 16.273438 15.597656 16.214844 15.609375 16.152344 C 15.601562 16.089844 15.585938 16.027344 15.5625 15.96875 L 14.113281 12.382812 L 14.890625 12.382812 Z M 19.679688 11.277344 L 19.679688 12.394531 L 20.703125 12.394531 L 20.703125 12.929688 L 19.679688 12.929688 L 19.679688 15.027344 C 19.679688 15.503906 19.820312 15.78125 20.214844 15.78125 C 20.355469 15.785156 20.492188 15.769531 20.628906 15.734375 L 20.660156 16.265625 C 20.457031 16.335938 20.242188 16.371094 20.027344 16.363281 C 19.738281 16.382812 19.457031 16.273438 19.253906 16.066406 C 19.039062 15.773438 18.9375 15.414062 18.976562 15.054688 L 18.976562 12.921875 L 18.371094 12.921875 L 18.371094 12.390625 L 18.988281 12.390625 L 18.988281 11.441406 Z M 22.019531 14.464844 C 21.988281 14.832031 22.121094 15.191406 22.382812 15.449219 C 22.640625 15.707031 23 15.839844 23.367188 15.8125 C 23.730469 15.820312 24.09375 15.75 24.429688 15.609375 L 24.554688 16.140625 C 24.140625 16.3125 23.695312 16.394531 23.25 16.382812 C 22.722656 16.417969 22.203125 16.222656 21.835938 15.84375 C 21.464844 15.46875 21.277344 14.949219 21.320312 14.421875 C 21.320312 13.25 22.019531 12.324219 23.15625 12.324219 C 24.4375 12.324219 24.753906 13.441406 24.753906 14.15625 C 24.761719 14.265625 24.761719 14.375 24.753906 14.484375 L 22.003906 14.484375 Z M 24.105469 13.933594 C 24.148438 13.644531 24.0625 13.351562 23.871094 13.132812 C 23.683594 12.910156 23.40625 12.785156 23.117188 12.78125 C 22.507812 12.824219 22.035156 13.324219 22.023438 13.933594 Z M 25.839844 13.605469 C 25.839844 13.148438 25.839844 12.753906 25.804688 12.390625 L 26.445312 12.390625 L 26.445312 13.152344 L 26.476562 13.152344 C 26.613281 12.671875 27.042969 12.328125 27.542969 12.300781 C 27.609375 12.292969 27.679688 12.292969 27.746094 12.300781 L 27.746094 12.964844 C 27.664062 12.957031 27.582031 12.957031 27.5 12.964844 C 27 12.984375 26.59375 13.375 26.546875 13.871094 C 26.527344 13.980469 26.515625 14.089844 26.515625 14.203125 L 26.515625 16.273438 L 25.8125 16.273438 L 25.8125 13.609375 Z M 25.839844 13.605469 "/>
<path style=" stroke:none;fill-rule:nonzero;fill:rgb(46.27451%,46.27451%,46.666667%);fill-opacity:1;" d="M 25.527344 1.695312 C 25.570312 2.429688 25.167969 3.113281 24.507812 3.433594 C 23.847656 3.75 23.058594 3.636719 22.515625 3.148438 C 21.972656 2.65625 21.777344 1.886719 22.023438 1.195312 C 22.273438 0.507812 22.914062 0.0351562 23.644531 0.00390625 C 24.121094 -0.0234375 24.585938 0.140625 24.9375 0.457031 C 25.289062 0.777344 25.503906 1.222656 25.527344 1.695312 Z M 25.527344 1.695312 "/>
<path style=" stroke:none;fill-rule:nonzero;fill:rgb(95.294118%,46.666667%,14.901961%);fill-opacity:1;" d="M 14.996094 22.554688 C 10.203125 22.554688 5.988281 20.835938 3.8125 18.292969 C 5.542969 22.972656 10.003906 26.082031 14.996094 26.082031 C 19.984375 26.082031 24.449219 22.972656 26.179688 18.292969 C 24.007812 20.835938 19.808594 22.554688 14.996094 22.554688 Z M 14.996094 6.035156 C 19.789062 6.035156 24 7.753906 26.179688 10.296875 C 24.449219 5.617188 19.984375 2.507812 14.996094 2.507812 C 10.003906 2.507812 5.542969 5.617188 3.8125 10.296875 C 5.988281 7.75 10.179688 6.035156 14.996094 6.035156 Z M 14.996094 6.035156 "/>
<path style=" stroke:none;fill-rule:nonzero;fill:rgb(61.960787%,61.960787%,61.960787%);fill-opacity:1;" d="M 8.398438 27.496094 C 8.453125 28.417969 7.949219 29.285156 7.117188 29.6875 C 6.285156 30.089844 5.292969 29.949219 4.609375 29.332031 C 3.921875 28.714844 3.675781 27.742188 3.988281 26.871094 C 4.296875 26.003906 5.105469 25.40625 6.027344 25.367188 C 7.269531 25.300781 8.332031 26.253906 8.398438 27.496094 Z M 8.398438 27.496094 "/>
<path style=" stroke:none;fill-rule:nonzero;fill:rgb(38.039216%,38.431373%,38.431373%);fill-opacity:1;" d="M 4.355469 5.457031 C 3.636719 5.476562 3.035156 4.910156 3.011719 4.1875 C 2.988281 3.46875 3.550781 2.863281 4.273438 2.835938 C 4.992188 2.8125 5.601562 3.371094 5.628906 4.09375 C 5.648438 4.820312 5.082031 5.425781 4.355469 5.457031 Z M 4.355469 5.457031 "/>
</g>
</svg>
