<?xml version="1.0" encoding="UTF-8"?>
<svg xmlns="http://www.w3.org/2000/svg" xmlns:xlink="http://www.w3.org/1999/xlink" width="30px" height="30px" viewBox="0 0 30 30" version="1.1">
<g id="surface1">
<path style=" stroke:none;fill-rule:nonzero;fill:rgb(100%,32.156864%,32.156864%);fill-opacity:1;" d="M 29.964844 8.550781 C 29.957031 8.523438 29.945312 8.496094 29.933594 8.46875 C 29.914062 8.417969 29.894531 8.371094 29.867188 8.324219 C 29.820312 8.257812 29.769531 8.191406 29.714844 8.132812 L 29.515625 7.980469 L 29.480469 7.960938 L 23.855469 5.148438 C 23.59375 5.015625 23.28125 5.015625 23.019531 5.148438 L 17.394531 7.960938 L 17.359375 7.980469 L 17.320312 8 C 17.171875 8.113281 17.113281 8.171875 17.066406 8.242188 C 16.980469 8.371094 16.957031 8.417969 16.941406 8.46875 C 16.933594 8.496094 16.917969 8.523438 16.910156 8.550781 C 16.886719 8.632812 16.875 8.714844 16.875 8.796875 L 16.875 13.84375 L 13.125 15.71875 L 13.125 5.046875 C 13.125 4.964844 13.113281 4.882812 13.089844 4.800781 C 13.082031 4.773438 13.070312 4.746094 13.058594 4.71875 C 13.039062 4.667969 13.019531 4.621094 12.992188 4.574219 C 12.886719 4.421875 12.828125 4.363281 12.757812 4.3125 L 12.640625 4.230469 L 12.605469 4.210938 L 6.980469 1.398438 C 6.71875 1.265625 6.40625 1.265625 6.144531 1.398438 L 0.519531 4.210938 L 0.484375 4.230469 L 0.445312 4.25 C 0.25 4.417969 0.21875 4.453125 0.191406 4.492188 C 0.105469 4.621094 0.0820312 4.667969 0.0664062 4.71875 C 0.0585938 4.746094 0.0429688 4.773438 0.0351562 4.800781 C 0.0117188 4.882812 0 4.964844 0 5.046875 L 0 22.859375 C 0 23.214844 0.199219 23.539062 0.519531 23.699219 L 11.769531 29.324219 C 11.78125 29.332031 11.796875 29.328125 11.8125 29.335938 C 12.046875 29.453125 12.328125 29.453125 12.5625 29.335938 C 12.578125 29.328125 12.59375 29.332031 12.605469 29.324219 L 23.855469 23.699219 C 24.175781 23.542969 24.375 23.214844 24.375 22.859375 L 24.375 17.816406 L 29.480469 15.261719 C 29.800781 15.101562 30 14.777344 30 14.421875 L 30 8.796875 C 30 8.714844 29.988281 8.632812 29.964844 8.550781 M 8.660156 20.046875 L 12.605469 18.074219 L 12.609375 18.074219 L 17.8125 15.472656 L 21.339844 17.234375 L 12.1875 21.8125 Z M 22.5 12.191406 L 22.5 15.71875 L 18.75 13.84375 L 18.75 10.316406 Z M 23.4375 7.035156 L 26.964844 8.796875 L 23.4375 10.5625 L 19.910156 8.796875 Z M 7.5 18.53125 L 7.5 8.441406 L 11.25 6.566406 L 11.25 16.65625 Z M 6.5625 3.285156 L 10.089844 5.046875 L 6.5625 6.8125 L 3.035156 5.046875 Z M 1.875 6.566406 L 5.625 8.441406 L 5.625 24.15625 L 1.875 22.28125 Z M 7.5 21.566406 L 11.25 23.441406 L 11.25 26.96875 L 7.5 25.09375 Z M 22.5 22.28125 L 13.125 26.96875 L 13.125 23.441406 L 22.5 18.753906 Z M 28.125 13.84375 L 24.375 15.71875 L 24.375 12.191406 L 28.125 10.316406 Z M 28.125 13.84375 "/>
</g>
</svg>
