<?xml version="1.0" encoding="UTF-8"?>
<svg xmlns="http://www.w3.org/2000/svg" xmlns:xlink="http://www.w3.org/1999/xlink" width="30px" height="30px" viewBox="0 0 30 30" version="1.1">
<defs>
<linearGradient id="linear0" gradientUnits="userSpaceOnUse" x1="-2901.951904" y1="923.572998" x2="-2061.249023" y2="1420.331055" gradientTransform="matrix(0.00142446,0,0,-0.00142446,17.424018,19.095841)">
<stop offset="0" style="stop-color:rgb(56.470588%,61.176471%,66.27451%);stop-opacity:1;"/>
<stop offset="1" style="stop-color:rgb(92.941176%,92.941176%,93.333333%);stop-opacity:1;"/>
</linearGradient>
<linearGradient id="linear1" gradientUnits="userSpaceOnUse" x1="-2882.699951" y1="10288.80957" x2="-2206.249023" y2="10288.80957" gradientTransform="matrix(0.00142446,0,0,-0.00142446,17.424018,19.095841)">
<stop offset="0" style="stop-color:rgb(57.647059%,62.352941%,67.058824%);stop-opacity:1;"/>
<stop offset="1" style="stop-color:rgb(86.27451%,87.058824%,88.235294%);stop-opacity:1;"/>
</linearGradient>
<radialGradient id="radial0" gradientUnits="userSpaceOnUse" cx="-14217.448242" cy="7277.705078" fx="-14217.448242" fy="7277.705078" r="898.119995" gradientTransform="matrix(-0.00136864,-0.000205487,-0.000416047,0.00273729,1.750444,-13.985136)">
<stop offset="0" style="stop-color:rgb(93.333333%,20.784314%,17.254902%);stop-opacity:1;"/>
<stop offset="1" style="stop-color:rgb(66.27451%,11.372549%,13.333333%);stop-opacity:1;"/>
</radialGradient>
</defs>
<g id="surface1">
<path style=" stroke:none;fill-rule:nonzero;fill:url(#linear0);" d="M 20.339844 10.59375 L 17.027344 11.675781 L 14.144531 12.949219 L 13.335938 13.164062 C 13.132812 13.359375 12.917969 13.554688 12.683594 13.757812 C 12.429688 13.976562 12.191406 14.175781 12.007812 14.320312 C 11.804688 14.480469 11.503906 14.78125 11.351562 14.972656 C 11.125 15.257812 10.945312 15.5625 10.867188 15.792969 C 10.726562 16.214844 10.796875 16.640625 11.0625 17.035156 C 11.402344 17.535156 12.082031 18.046875 12.871094 18.394531 C 13.273438 18.570312 13.953125 18.800781 14.464844 18.925781 C 15.3125 19.140625 16.957031 19.375 17.859375 19.410156 C 18.042969 19.417969 18.289062 19.417969 18.296875 19.410156 C 18.316406 19.398438 18.457031 19.128906 18.621094 18.796875 C 19.175781 17.664062 19.578125 16.597656 19.796875 15.6875 C 19.925781 15.136719 20.027344 14.40625 20.097656 13.535156 C 20.113281 13.292969 20.121094 12.480469 20.105469 12.203125 C 20.082031 11.753906 20.042969 11.386719 19.980469 11.027344 C 19.972656 10.976562 19.96875 10.929688 19.972656 10.925781 C 19.984375 10.917969 20.011719 10.910156 20.421875 10.789062 Z M 19.582031 11.039062 C 19.613281 11.039062 19.691406 11.808594 19.714844 12.292969 C 19.71875 12.394531 19.714844 12.464844 19.710938 12.464844 C 19.691406 12.464844 19.289062 12.226562 19 12.046875 C 18.75 11.886719 18.273438 11.574219 18.199219 11.511719 C 18.171875 11.496094 18.175781 11.492188 18.382812 11.421875 C 18.730469 11.304688 19.554688 11.039062 19.582031 11.039062 M 17.894531 11.59375 C 17.917969 11.59375 17.976562 11.628906 18.113281 11.710938 C 18.628906 12.035156 19.332031 12.425781 19.628906 12.554688 C 19.722656 12.597656 19.734375 12.582031 19.519531 12.726562 C 19.066406 13.039062 18.496094 13.34375 17.800781 13.652344 C 17.726562 13.683594 17.648438 13.71875 17.570312 13.75 C 17.566406 13.75 17.582031 13.6875 17.601562 13.609375 C 17.769531 12.988281 17.863281 12.355469 17.871094 11.851562 C 17.871094 11.601562 17.871094 11.601562 17.894531 11.59375 C 17.890625 11.59375 17.894531 11.59375 17.894531 11.59375 M 17.546875 11.726562 C 17.5625 11.742188 17.550781 12.304688 17.53125 12.457031 C 17.488281 12.824219 17.410156 13.191406 17.300781 13.546875 C 17.273438 13.636719 17.25 13.714844 17.242188 13.722656 C 17.234375 13.734375 16.890625 13.398438 16.777344 13.269531 C 16.582031 13.042969 16.429688 12.816406 16.316406 12.597656 C 16.261719 12.484375 16.167969 12.261719 16.175781 12.257812 C 16.21875 12.226562 17.535156 11.71875 17.546875 11.726562 M 15.910156 12.371094 C 15.910156 12.371094 15.914062 12.371094 15.917969 12.375 C 15.921875 12.378906 15.9375 12.417969 15.953125 12.464844 C 16.035156 12.683594 16.214844 13.003906 16.371094 13.207031 C 16.539062 13.433594 16.761719 13.671875 16.949219 13.832031 C 17.007812 13.882812 17.0625 13.929688 17.070312 13.9375 C 17.085938 13.953125 17.089844 13.949219 16.683594 14.105469 C 16.210938 14.285156 15.695312 14.464844 15.101562 14.65625 C 14.960938 14.699219 14.820312 14.746094 14.679688 14.792969 C 14.65625 14.800781 14.664062 14.789062 14.730469 14.683594 C 15.023438 14.226562 15.46875 13.328125 15.71875 12.691406 C 15.761719 12.582031 15.804688 12.472656 15.8125 12.445312 C 15.820312 12.410156 15.835938 12.398438 15.867188 12.382812 C 15.882812 12.375 15.902344 12.371094 15.910156 12.371094 M 15.410156 12.578125 C 15.417969 12.585938 15.289062 12.851562 15.164062 13.097656 C 14.921875 13.570312 14.65625 14.035156 14.300781 14.601562 C 14.238281 14.699219 14.179688 14.789062 14.175781 14.800781 C 14.160156 14.816406 14.15625 14.8125 14.117188 14.734375 C 14.03125 14.566406 13.960938 14.351562 13.921875 14.152344 C 13.886719 13.957031 13.894531 13.617188 13.9375 13.40625 C 13.96875 13.253906 13.964844 13.253906 14.042969 13.21875 C 14.363281 13.054688 15.398438 12.570312 15.410156 12.578125 Z M 19.726562 12.753906 L 19.726562 12.859375 C 19.726562 13.417969 19.667969 14.183594 19.582031 14.742188 C 19.566406 14.839844 19.554688 14.921875 19.550781 14.921875 C 19.550781 14.921875 19.476562 14.902344 19.394531 14.878906 C 18.992188 14.75 18.609375 14.585938 18.242188 14.382812 C 17.996094 14.25 17.644531 14.035156 17.65625 14.023438 C 17.65625 14.019531 17.761719 13.964844 17.886719 13.902344 C 18.375 13.644531 18.847656 13.371094 19.253906 13.097656 C 19.40625 12.996094 19.636719 12.828125 19.6875 12.785156 Z M 13.519531 13.496094 C 13.527344 13.496094 13.523438 13.515625 13.511719 13.605469 C 13.496094 13.695312 13.488281 13.785156 13.484375 13.875 C 13.460938 14.238281 13.523438 14.511719 13.703125 14.878906 C 13.753906 14.984375 13.792969 15.066406 13.789062 15.070312 C 13.773438 15.085938 12.117188 15.570312 11.59375 15.714844 C 11.4375 15.757812 11.304688 15.792969 11.292969 15.796875 C 11.277344 15.800781 11.273438 15.800781 11.28125 15.757812 C 11.339844 15.390625 11.621094 14.90625 12.011719 14.503906 C 12.269531 14.230469 12.476562 14.074219 12.835938 13.871094 C 13.089844 13.726562 13.484375 13.507812 13.511719 13.5 C 13.511719 13.496094 13.515625 13.496094 13.519531 13.496094 M 17.425781 14.195312 C 17.425781 14.191406 17.488281 14.222656 17.558594 14.265625 C 18.09375 14.578125 18.839844 14.867188 19.476562 15.011719 L 19.535156 15.027344 L 19.457031 15.070312 C 19.121094 15.257812 18.027344 15.710938 16.910156 16.128906 C 16.746094 16.191406 16.585938 16.25 16.554688 16.261719 C 16.523438 16.273438 16.496094 16.28125 16.496094 16.28125 C 16.496094 16.277344 16.542969 16.191406 16.601562 16.082031 C 16.914062 15.496094 17.230469 14.78125 17.390625 14.285156 C 17.410156 14.238281 17.421875 14.195312 17.425781 14.195312 M 17.027344 14.324219 C 17.027344 14.328125 17.007812 14.378906 16.984375 14.441406 C 16.765625 14.96875 16.480469 15.542969 16.113281 16.191406 C 16.023438 16.355469 15.945312 16.488281 15.941406 16.488281 C 15.9375 16.488281 15.863281 16.441406 15.773438 16.386719 C 15.242188 16.0625 14.773438 15.660156 14.464844 15.273438 L 14.417969 15.21875 L 14.648438 15.15625 C 15.464844 14.933594 16.15625 14.691406 16.847656 14.398438 C 16.945312 14.355469 17.023438 14.324219 17.027344 14.324219 M 19.5 15.1875 C 19.5 15.1875 19.503906 15.191406 19.5 15.1875 C 19.503906 15.246094 19.375 15.761719 19.269531 16.136719 C 19.183594 16.449219 19.105469 16.695312 18.96875 17.125 C 18.910156 17.316406 18.855469 17.476562 18.855469 17.476562 C 18.851562 17.476562 18.835938 17.472656 18.820312 17.46875 C 18.078125 17.332031 17.410156 17.144531 16.785156 16.894531 C 16.609375 16.824219 16.359375 16.710938 16.34375 16.699219 C 16.339844 16.695312 16.492188 16.625 16.679688 16.539062 C 17.820312 16.042969 19.003906 15.476562 19.40625 15.234375 C 19.457031 15.203125 19.492188 15.1875 19.5 15.1875 Z M 13.789062 15.382812 C 13.792969 15.390625 13.476562 15.847656 13.03125 16.46875 C 12.875 16.6875 12.695312 16.945312 12.625 17.039062 C 12.546875 17.148438 12.472656 17.261719 12.398438 17.375 L 12.292969 17.539062 L 12.179688 17.441406 C 12.046875 17.332031 11.816406 17.097656 11.714844 16.964844 C 11.5 16.699219 11.355469 16.414062 11.296875 16.15625 C 11.269531 16.039062 11.269531 15.976562 11.292969 15.96875 C 11.332031 15.960938 12 15.800781 12.625 15.65625 C 12.925781 15.585938 13.222656 15.519531 13.523438 15.445312 C 13.667969 15.410156 13.785156 15.382812 13.789062 15.382812 M 14.109375 15.507812 L 14.1875 15.597656 C 14.550781 16 14.917969 16.296875 15.363281 16.558594 C 15.445312 16.601562 15.503906 16.644531 15.5 16.644531 C 15.480469 16.660156 13.949219 17.203125 13.242188 17.445312 C 13 17.53125 12.757812 17.617188 12.511719 17.699219 C 12.511719 17.699219 12.488281 17.683594 12.464844 17.667969 L 12.417969 17.636719 L 12.492188 17.53125 C 12.726562 17.1875 13.023438 16.816406 13.664062 16.039062 Z M 16.105469 16.9375 C 16.109375 16.933594 16.21875 16.972656 16.355469 17.023438 C 16.679688 17.148438 16.9375 17.222656 17.285156 17.3125 C 17.710938 17.417969 18.324219 17.523438 18.6875 17.554688 C 18.742188 17.558594 18.773438 17.566406 18.765625 17.574219 C 18.746094 17.582031 18.378906 17.707031 18.109375 17.789062 C 17.675781 17.925781 16.363281 18.3125 15.289062 18.621094 C 15.09375 18.679688 14.921875 18.726562 14.914062 18.730469 C 14.886719 18.734375 14.804688 18.710938 14.804688 18.703125 C 14.804688 18.695312 14.863281 18.621094 14.9375 18.535156 C 15.296875 18.101562 15.65625 17.621094 15.953125 17.167969 C 16.035156 17.042969 16.105469 16.9375 16.105469 16.9375 M 15.667969 16.949219 C 15.667969 16.953125 15.492188 17.238281 15.179688 17.726562 C 15.046875 17.933594 14.898438 18.171875 14.847656 18.253906 C 14.796875 18.332031 14.722656 18.457031 14.679688 18.527344 L 14.605469 18.65625 L 14.570312 18.648438 C 14.480469 18.621094 13.847656 18.398438 13.679688 18.332031 C 13.480469 18.253906 13.285156 18.164062 13.09375 18.0625 C 12.894531 17.957031 12.644531 17.796875 12.664062 17.789062 C 12.667969 17.789062 13.011719 17.695312 13.425781 17.582031 C 14.523438 17.285156 15.128906 17.113281 15.527344 16.988281 C 15.601562 16.964844 15.664062 16.945312 15.667969 16.949219 Z M 18.785156 17.679688 C 18.796875 17.707031 18.390625 18.832031 18.242188 19.1875 C 18.210938 19.269531 18.199219 19.289062 18.179688 19.285156 C 18.136719 19.28125 17.550781 19.199219 17.191406 19.148438 C 16.566406 19.050781 15.519531 18.871094 15.257812 18.808594 L 15.199219 18.796875 L 15.570312 18.710938 C 16.371094 18.53125 16.757812 18.433594 17.148438 18.3125 C 17.652344 18.160156 18.144531 17.96875 18.625 17.746094 C 18.703125 17.710938 18.765625 17.683594 18.785156 17.679688 "/>
<path style=" stroke:none;fill-rule:nonzero;fill:url(#linear1);" d="M 16.921875 2.871094 C 16.867188 2.863281 15.980469 3.1875 15.40625 3.417969 C 14.632812 3.734375 14.03125 4.035156 13.660156 4.296875 C 13.523438 4.394531 13.351562 4.566406 13.324219 4.632812 C 13.3125 4.660156 13.308594 4.6875 13.308594 4.71875 L 13.644531 5.035156 L 14.441406 5.292969 L 16.34375 5.632812 L 18.515625 6.003906 L 18.539062 5.816406 C 18.53125 5.816406 18.527344 5.816406 18.519531 5.816406 L 18.234375 5.769531 L 18.175781 5.667969 C 17.878906 5.148438 17.554688 4.5 17.363281 4.066406 C 17.214844 3.726562 17.078125 3.335938 17 3.054688 C 16.957031 2.886719 16.949219 2.875 16.921875 2.871094 Z M 16.882812 3 L 16.886719 3 C 16.886719 3.003906 16.898438 3.074219 16.910156 3.15625 C 16.949219 3.507812 17.027344 3.84375 17.152344 4.210938 C 17.242188 4.484375 17.242188 4.46875 17.136719 4.4375 C 16.882812 4.367188 15.738281 4.167969 14.90625 4.054688 C 14.773438 4.039062 14.664062 4.019531 14.664062 4.015625 C 14.652344 4.007812 15.261719 3.6875 15.527344 3.5625 C 15.871094 3.40625 16.8125 3.011719 16.882812 3 Z M 14.46875 4.121094 L 14.566406 4.15625 C 15.097656 4.335938 16.433594 4.589844 17.167969 4.652344 C 17.25 4.660156 17.320312 4.664062 17.324219 4.664062 C 17.328125 4.667969 17.257812 4.707031 17.167969 4.75 C 16.8125 4.925781 16.421875 5.144531 16.148438 5.3125 C 16.070312 5.363281 15.996094 5.402344 15.988281 5.402344 C 15.976562 5.402344 15.925781 5.390625 15.871094 5.382812 L 15.769531 5.371094 L 15.519531 5.125 C 15.214844 4.828125 14.90625 4.53125 14.597656 4.238281 Z M 14.367188 4.199219 L 14.722656 4.640625 C 14.914062 4.882812 15.109375 5.121094 15.152344 5.175781 C 15.195312 5.226562 15.230469 5.269531 15.226562 5.273438 C 15.21875 5.277344 14.71875 5.179688 14.453125 5.121094 C 14.179688 5.058594 14.066406 5.027344 13.898438 4.976562 L 13.761719 4.929688 L 13.761719 4.894531 C 13.761719 4.726562 13.976562 4.476562 14.335938 4.222656 Z M 17.371094 4.800781 C 17.378906 4.800781 17.390625 4.824219 17.421875 4.890625 C 17.507812 5.078125 17.773438 5.585938 17.835938 5.683594 C 17.859375 5.714844 17.894531 5.71875 17.539062 5.660156 C 16.691406 5.523438 16.417969 5.476562 16.417969 5.472656 C 16.417969 5.46875 16.441406 5.453125 16.476562 5.433594 C 16.738281 5.289062 17.003906 5.105469 17.238281 4.90625 C 17.296875 4.859375 17.347656 4.8125 17.359375 4.804688 C 17.363281 4.800781 17.367188 4.796875 17.371094 4.800781 Z M 17.371094 4.800781 "/>
<path style=" stroke:none;fill-rule:nonzero;fill:url(#radial0);" d="M 13.339844 4.597656 C 13.339844 4.597656 13.285156 4.6875 13.335938 4.816406 C 13.371094 4.894531 13.464844 4.992188 13.574219 5.09375 C 13.574219 5.09375 14.6875 6.179688 14.824219 6.335938 C 15.4375 7.046875 15.707031 7.75 15.730469 8.714844 C 15.746094 9.335938 15.628906 9.882812 15.335938 10.515625 C 14.816406 11.652344 13.714844 12.90625 12.019531 14.300781 L 12.269531 14.21875 C 12.429688 14.097656 12.644531 13.96875 13.15625 13.6875 C 14.335938 13.042969 15.664062 12.449219 17.292969 11.835938 C 19.636719 10.957031 23.488281 9.925781 25.683594 9.589844 L 25.910156 9.554688 L 25.875 9.5 C 25.675781 9.1875 25.539062 8.996094 25.371094 8.789062 C 24.890625 8.195312 24.308594 7.710938 23.59375 7.308594 C 22.613281 6.761719 21.34375 6.332031 19.734375 6.015625 C 19.433594 5.957031 18.765625 5.839844 18.226562 5.757812 C 17.324219 5.617188 16.421875 5.472656 15.519531 5.316406 C 15.226562 5.265625 14.789062 5.191406 14.5 5.128906 C 14.347656 5.097656 14.0625 5.027344 13.835938 4.953125 C 13.65625 4.882812 13.394531 4.8125 13.339844 4.597656 Z M 13.984375 5.222656 C 13.988281 5.222656 14.027344 5.238281 14.082031 5.253906 C 14.175781 5.285156 14.300781 5.324219 14.445312 5.363281 C 14.554688 5.394531 14.664062 5.421875 14.773438 5.453125 C 14.925781 5.488281 15.050781 5.523438 15.054688 5.523438 C 15.070312 5.542969 15.324219 6.351562 15.410156 6.660156 C 15.441406 6.78125 15.464844 6.878906 15.464844 6.878906 C 15.460938 6.882812 15.433594 6.839844 15.402344 6.78125 C 15.109375 6.265625 14.644531 5.742188 14.109375 5.320312 C 14.039062 5.273438 13.984375 5.226562 13.984375 5.222656 Z M 15.21875 5.566406 C 15.230469 5.566406 15.285156 5.574219 15.351562 5.585938 C 15.777344 5.683594 16.542969 5.828125 17.03125 5.910156 C 17.113281 5.921875 17.179688 5.9375 17.179688 5.941406 C 17.179688 5.949219 17.148438 5.964844 17.109375 5.984375 C 17.027344 6.027344 16.695312 6.226562 16.585938 6.300781 C 16.308594 6.484375 16.058594 6.6875 15.875 6.867188 C 15.832031 6.910156 15.785156 6.957031 15.742188 7 C 15.742188 7 15.726562 6.957031 15.714844 6.90625 C 15.625 6.554688 15.4375 6.039062 15.265625 5.675781 C 15.238281 5.621094 15.214844 5.566406 15.214844 5.5625 C 15.214844 5.566406 15.214844 5.566406 15.21875 5.566406 M 17.386719 5.976562 C 17.402344 5.984375 17.425781 6.066406 17.476562 6.253906 C 17.570312 6.628906 17.609375 7.015625 17.597656 7.402344 C 17.59375 7.507812 17.585938 7.605469 17.582031 7.617188 L 17.574219 7.644531 L 17.445312 7.601562 C 17.175781 7.515625 16.742188 7.386719 16.367188 7.28125 C 16.15625 7.226562 15.980469 7.171875 15.980469 7.167969 C 15.980469 7.152344 16.292969 6.84375 16.425781 6.722656 C 16.679688 6.5 17.363281 5.96875 17.386719 5.976562 M 17.558594 6.003906 C 17.566406 5.996094 18.597656 6.171875 19.066406 6.261719 C 19.414062 6.332031 19.917969 6.4375 19.949219 6.449219 C 19.964844 6.453125 19.910156 6.484375 19.742188 6.558594 C 19.082031 6.855469 18.589844 7.125 18.101562 7.449219 C 17.976562 7.535156 17.867188 7.605469 17.863281 7.605469 C 17.863281 7.605469 17.859375 7.53125 17.859375 7.445312 C 17.859375 6.96875 17.765625 6.488281 17.589844 6.082031 C 17.570312 6.042969 17.558594 6.003906 17.558594 6.003906 Z M 20.222656 6.527344 C 20.230469 6.535156 20.195312 6.738281 20.167969 6.859375 C 20.078125 7.234375 19.832031 7.785156 19.535156 8.308594 C 19.484375 8.398438 19.433594 8.472656 19.429688 8.476562 C 19.425781 8.480469 19.359375 8.441406 19.28125 8.398438 C 18.988281 8.226562 18.660156 8.066406 18.296875 7.917969 C 18.199219 7.875 18.109375 7.839844 18.109375 7.832031 C 18.089844 7.820312 18.898438 7.285156 19.324219 7.03125 C 19.660156 6.824219 20.210938 6.519531 20.222656 6.527344 M 20.410156 6.558594 C 20.433594 6.558594 20.890625 6.683594 21.128906 6.753906 C 21.714844 6.929688 22.394531 7.175781 22.832031 7.378906 L 23.015625 7.460938 L 22.886719 7.492188 C 21.8125 7.738281 20.890625 8.023438 20 8.382812 C 19.929688 8.414062 19.863281 8.441406 19.859375 8.441406 C 19.851562 8.441406 19.878906 8.382812 19.910156 8.3125 C 20.179688 7.742188 20.351562 7.148438 20.394531 6.644531 C 20.398438 6.597656 20.40625 6.558594 20.410156 6.558594 Z M 15.875 7.601562 C 15.882812 7.59375 16.230469 7.675781 16.417969 7.726562 C 16.703125 7.808594 17.308594 8.011719 17.308594 8.027344 C 17.308594 8.027344 17.242188 8.085938 17.160156 8.15625 C 16.832031 8.429688 16.519531 8.71875 16.140625 9.082031 C 16.027344 9.191406 15.933594 9.277344 15.925781 9.277344 C 15.921875 9.277344 15.917969 9.261719 15.921875 9.242188 C 15.980469 8.824219 15.96875 8.28125 15.886719 7.734375 C 15.878906 7.664062 15.871094 7.601562 15.875 7.601562 Z M 23.1875 7.609375 C 23.195312 7.613281 23.027344 7.875 22.921875 8.019531 C 22.773438 8.238281 22.554688 8.523438 22.054688 9.148438 C 21.835938 9.425781 21.617188 9.699219 21.398438 9.976562 C 21.296875 10.101562 21.214844 10.207031 21.214844 10.207031 C 21.210938 10.207031 21.179688 10.164062 21.144531 10.105469 C 20.863281 9.6875 20.527344 9.320312 20.128906 8.988281 C 20.066406 8.9375 20.007812 8.886719 19.945312 8.835938 C 19.914062 8.816406 19.894531 8.796875 19.894531 8.796875 C 19.894531 8.789062 20.320312 8.605469 20.640625 8.472656 C 21.207031 8.246094 21.980469 7.96875 22.558594 7.789062 C 22.859375 7.695312 23.183594 7.601562 23.1875 7.609375 M 23.382812 7.660156 C 23.390625 7.65625 23.453125 7.6875 23.523438 7.726562 C 24.132812 8.078125 24.730469 8.523438 25.199219 8.984375 C 25.332031 9.117188 25.660156 9.457031 25.65625 9.457031 C 25.65625 9.457031 25.539062 9.46875 25.40625 9.480469 C 24.351562 9.558594 23 9.78125 21.703125 10.09375 C 21.648438 10.109375 21.589844 10.121094 21.535156 10.132812 C 21.527344 10.132812 21.625 10.035156 21.75 9.917969 C 22.511719 9.183594 22.859375 8.71875 23.269531 7.894531 C 23.328125 7.769531 23.375 7.664062 23.382812 7.660156 C 23.378906 7.660156 23.378906 7.660156 23.382812 7.660156 M 17.804688 8.230469 C 17.839844 8.238281 18.164062 8.390625 18.410156 8.511719 C 18.636719 8.625 18.972656 8.804688 18.992188 8.820312 C 18.996094 8.824219 18.875 8.886719 18.726562 8.957031 C 18.285156 9.175781 17.851562 9.414062 17.433594 9.671875 C 17.3125 9.746094 17.210938 9.804688 17.210938 9.804688 C 17.199219 9.804688 17.203125 9.792969 17.269531 9.671875 C 17.496094 9.261719 17.675781 8.769531 17.777344 8.292969 C 17.789062 8.253906 17.796875 8.230469 17.804688 8.230469 M 17.480469 8.289062 C 17.488281 8.296875 17.402344 8.605469 17.347656 8.773438 C 17.246094 9.089844 17.074219 9.488281 16.90625 9.789062 C 16.867188 9.859375 16.804688 9.960938 16.773438 10.019531 L 16.710938 10.121094 L 16.570312 9.984375 C 16.40625 9.828125 16.273438 9.730469 16.105469 9.640625 C 16.035156 9.605469 15.984375 9.578125 15.984375 9.570312 C 15.984375 9.550781 16.414062 9.164062 16.742188 8.882812 C 16.976562 8.679688 17.472656 8.28125 17.480469 8.289062 M 19.46875 9.109375 L 19.59375 9.1875 C 19.875 9.371094 20.203125 9.613281 20.457031 9.828125 C 20.601562 9.945312 20.875 10.191406 20.929688 10.253906 L 20.960938 10.285156 L 20.757812 10.34375 C 19.609375 10.660156 18.722656 10.945312 17.691406 11.324219 C 17.574219 11.367188 17.476562 11.402344 17.46875 11.402344 C 17.453125 11.402344 17.441406 11.414062 17.699219 11.175781 C 18.359375 10.566406 18.945312 9.898438 19.382812 9.242188 Z M 18.945312 9.238281 C 18.953125 9.242188 18.609375 9.726562 18.402344 10 C 18.15625 10.324219 17.722656 10.871094 17.421875 11.226562 C 17.296875 11.375 17.1875 11.496094 17.183594 11.5 C 17.175781 11.503906 17.175781 11.464844 17.175781 11.40625 C 17.175781 11.105469 17.097656 10.78125 16.960938 10.503906 C 16.902344 10.390625 16.894531 10.363281 16.90625 10.351562 C 16.953125 10.308594 17.683594 9.890625 18.144531 9.644531 C 18.453125 9.480469 18.9375 9.234375 18.945312 9.238281 M 15.78125 10.015625 C 15.789062 10.015625 15.847656 10.042969 15.910156 10.078125 C 16.0625 10.164062 16.207031 10.261719 16.34375 10.371094 C 16.347656 10.375 16.28125 10.429688 16.199219 10.492188 C 15.921875 10.6875 15.652344 10.890625 15.386719 11.101562 C 15.167969 11.277344 15.160156 11.28125 15.183594 11.246094 C 15.351562 10.992188 15.433594 10.847656 15.519531 10.664062 C 15.601562 10.496094 15.671875 10.320312 15.730469 10.140625 C 15.75 10.070312 15.777344 10.015625 15.78125 10.015625 M 16.625 10.675781 C 16.636719 10.671875 16.652344 10.695312 16.71875 10.796875 C 16.863281 11.007812 16.972656 11.292969 17 11.523438 L 17.007812 11.574219 L 16.664062 11.707031 C 16.050781 11.945312 15.484375 12.179688 15.101562 12.355469 C 14.992188 12.40625 14.804688 12.496094 14.683594 12.554688 C 14.558594 12.617188 14.460938 12.667969 14.460938 12.664062 C 14.460938 12.660156 14.535156 12.605469 14.632812 12.535156 C 15.382812 11.992188 16.03125 11.394531 16.515625 10.796875 C 16.566406 10.734375 16.617188 10.679688 16.621094 10.675781 Z M 16.238281 10.769531 C 16.246094 10.78125 15.960938 11.105469 15.765625 11.300781 C 15.285156 11.796875 14.804688 12.179688 14.210938 12.554688 C 14.136719 12.605469 14.070312 12.648438 14.0625 12.652344 C 14.042969 12.660156 14.066406 12.636719 14.328125 12.355469 C 14.480469 12.191406 14.625 12.019531 14.761719 11.839844 C 14.855469 11.71875 14.871094 11.699219 15.011719 11.601562 C 15.378906 11.335938 16.226562 10.761719 16.238281 10.769531 "/>
<path style=" stroke:none;fill-rule:nonzero;fill:rgb(13.725491%,12.156863%,12.156863%);fill-opacity:1;" d="M 5.394531 21.140625 C 5.347656 21.140625 5.300781 21.144531 5.253906 21.144531 C 4.320312 21.195312 3.691406 21.605469 3.324219 22.40625 C 3.011719 23.132812 3.042969 24.078125 3.328125 24.808594 C 3.660156 25.523438 4.191406 25.898438 5.082031 26.042969 C 5.269531 26.070312 5.398438 26.175781 5.761719 26.601562 L 6.210938 27.128906 L 7.023438 27.128906 L 6.484375 26.582031 C 6.183594 26.28125 5.941406 26.023438 5.941406 26 C 5.941406 25.976562 6.054688 25.925781 6.195312 25.882812 C 6.652344 25.746094 7.03125 25.390625 7.296875 24.851562 C 7.511719 24.417969 7.542969 24.28125 7.574219 23.742188 C 7.652344 22.132812 6.804688 21.128906 5.394531 21.140625 Z M 6.105469 25.347656 C 5.710938 25.539062 5.136719 25.578125 4.761719 25.4375 C 4.371094 25.296875 3.996094 24.894531 3.828125 24.4375 C 3.640625 23.9375 3.667969 23.015625 3.882812 22.601562 C 4.226562 21.941406 4.683594 21.640625 5.351562 21.640625 C 6.339844 21.640625 6.90625 22.246094 6.976562 23.386719 C 7.035156 24.335938 6.71875 25.050781 6.109375 25.347656 Z M 20.171875 22.515625 C 19.832031 22.515625 19.570312 22.652344 19.394531 22.925781 L 19.253906 23.140625 L 19.253906 22.578125 L 18.664062 22.578125 L 18.664062 25.941406 L 19.253906 25.941406 L 19.253906 24.867188 C 19.253906 23.882812 19.265625 23.769531 19.402344 23.5 C 19.59375 23.132812 19.917969 22.949219 20.234375 23.035156 L 20.445312 23.097656 L 20.445312 22.515625 Z M 16.699219 22.484375 C 16.578125 22.484375 16.457031 22.5 16.339844 22.527344 C 15.546875 22.734375 15.101562 23.488281 15.128906 24.269531 C 15.128906 24.921875 15.257812 25.246094 15.570312 25.589844 C 16.214844 26.117188 16.796875 26.160156 17.585938 25.875 C 17.71875 25.820312 17.867188 25.753906 17.867188 25.753906 L 17.867188 25.222656 L 17.585938 25.371094 C 16.949219 25.648438 16.46875 25.648438 16.085938 25.320312 C 15.839844 25.070312 15.730469 24.769531 15.683594 24.429688 L 18.066406 24.429688 L 18.066406 23.976562 C 18.066406 23.050781 17.507812 22.46875 16.699219 22.484375 Z M 15.734375 23.957031 C 15.734375 23.957031 15.824219 23.382812 16.152344 23.15625 C 16.300781 23.046875 16.480469 22.992188 16.664062 22.992188 C 16.839844 22.992188 17.019531 23.046875 17.164062 23.160156 C 17.460938 23.390625 17.511719 23.953125 17.511719 23.953125 L 15.734375 23.953125 Z M 1.488281 23.351562 C 0.84375 22.964844 0.5625 22.683594 0.597656 22.351562 C 0.695312 21.441406 1.824219 21.566406 2.449219 21.910156 L 2.453125 21.296875 C 2.453125 21.296875 2.109375 21.148438 1.613281 21.140625 C 0.851562 21.128906 0.363281 21.378906 0.132812 21.882812 C -0.207031 22.632812 0.09375 23.195312 1.175781 23.828125 C 1.78125 24.179688 2.050781 24.484375 2.050781 24.820312 C 2.050781 25.511719 1.21875 25.753906 0.359375 25.320312 C 0.179688 25.230469 0.03125 25.15625 0.0234375 25.15625 C -0.0078125 25.355469 0.0078125 25.824219 0.0078125 25.824219 C 0.0078125 25.824219 0.273438 25.933594 0.667969 26.011719 C 1.652344 26.207031 2.542969 25.746094 2.628906 24.996094 C 2.703125 24.292969 2.449219 23.925781 1.488281 23.351562 Z M 25.402344 22.476562 C 25.28125 22.476562 25.15625 22.492188 25.039062 22.519531 C 24.246094 22.726562 23.804688 23.480469 23.832031 24.261719 C 23.832031 24.914062 23.960938 25.234375 24.273438 25.578125 C 24.917969 26.105469 25.503906 26.148438 26.292969 25.863281 C 26.386719 25.824219 26.480469 25.785156 26.574219 25.742188 L 26.574219 25.210938 L 26.292969 25.359375 C 25.65625 25.636719 25.175781 25.636719 24.792969 25.308594 C 24.546875 25.058594 24.4375 24.761719 24.386719 24.417969 L 26.769531 24.417969 L 26.769531 23.964844 C 26.769531 23.046875 26.210938 22.460938 25.402344 22.476562 Z M 24.4375 23.949219 C 24.4375 23.949219 24.527344 23.375 24.855469 23.144531 C 25.003906 23.035156 25.183594 22.980469 25.367188 22.980469 C 25.542969 22.980469 25.722656 23.035156 25.867188 23.148438 C 26.167969 23.378906 26.214844 23.945312 26.214844 23.945312 L 24.441406 23.945312 Z M 13.605469 23.359375 C 12.964844 22.972656 12.679688 22.691406 12.714844 22.359375 C 12.816406 21.445312 13.945312 21.574219 14.566406 21.917969 L 14.574219 21.304688 C 14.574219 21.304688 14.226562 21.15625 13.730469 21.148438 C 12.972656 21.136719 12.480469 21.386719 12.25 21.894531 C 11.914062 22.640625 12.214844 23.207031 13.292969 23.835938 C 13.902344 24.1875 14.167969 24.492188 14.167969 24.824219 C 14.167969 25.515625 13.335938 25.761719 12.476562 25.324219 C 12.300781 25.234375 12.152344 25.164062 12.144531 25.164062 C 12.113281 25.359375 12.128906 25.828125 12.128906 25.828125 C 12.128906 25.828125 12.390625 25.933594 12.785156 26.015625 C 13.765625 26.210938 14.660156 25.75 14.746094 25.003906 C 14.820312 24.304688 14.566406 23.933594 13.605469 23.359375 Z M 28.875 22.507812 C 28.535156 22.507812 28.269531 22.644531 28.097656 22.917969 L 27.957031 23.132812 L 27.957031 22.574219 L 27.367188 22.574219 L 27.367188 25.933594 L 27.957031 25.933594 L 27.957031 24.859375 C 27.957031 23.875 27.96875 23.761719 28.109375 23.492188 C 28.296875 23.125 28.621094 22.941406 28.9375 23.027344 L 29.148438 23.089844 L 29.148438 22.507812 Z M 8.90625 23.339844 L 8.90625 21.199219 L 8.308594 21.199219 L 8.308594 25.941406 L 10.816406 25.941406 L 10.816406 25.382812 L 8.90625 25.382812 Z M 22.6875 24.007812 L 22.195312 25.285156 L 21.722656 24 L 21.242188 22.574219 L 20.632812 22.574219 C 21.03125 23.703125 21.453125 24.828125 21.890625 25.941406 C 22.078125 25.945312 22.265625 25.941406 22.457031 25.941406 L 23.117188 24.277344 L 23.792969 22.578125 L 23.210938 22.578125 C 23.210938 22.578125 22.953125 23.25 22.683594 24.007812 Z M 10.277344 19.90625 C 10.375 19.90625 10.453125 19.875 10.519531 19.808594 C 10.585938 19.746094 10.621094 19.660156 10.621094 19.570312 C 10.621094 19.476562 10.585938 19.394531 10.519531 19.332031 C 10.457031 19.273438 10.371094 19.238281 10.28125 19.242188 C 10.1875 19.242188 10.105469 19.273438 10.039062 19.335938 C 9.976562 19.402344 9.945312 19.480469 9.945312 19.574219 C 9.945312 19.671875 9.976562 19.75 10.039062 19.8125 C 10.101562 19.875 10.183594 19.90625 10.277344 19.90625 Z M 10.066406 19.359375 C 10.125 19.300781 10.195312 19.277344 10.28125 19.277344 C 10.367188 19.277344 10.4375 19.300781 10.492188 19.359375 C 10.550781 19.417969 10.582031 19.488281 10.582031 19.570312 C 10.582031 19.652344 10.550781 19.730469 10.492188 19.785156 C 10.4375 19.84375 10.367188 19.871094 10.28125 19.871094 C 10.199219 19.871094 10.128906 19.84375 10.070312 19.785156 C 10.015625 19.730469 9.984375 19.652344 9.984375 19.570312 C 9.984375 19.488281 10.011719 19.417969 10.066406 19.359375 Z M 10.210938 19.601562 L 10.246094 19.601562 C 10.277344 19.601562 10.300781 19.628906 10.324219 19.679688 L 10.371094 19.78125 L 10.445312 19.78125 L 10.386719 19.667969 C 10.363281 19.621094 10.339844 19.59375 10.3125 19.585938 C 10.347656 19.578125 10.375 19.566406 10.394531 19.542969 C 10.414062 19.523438 10.421875 19.496094 10.421875 19.464844 C 10.421875 19.4375 10.410156 19.40625 10.386719 19.386719 C 10.359375 19.363281 10.316406 19.351562 10.261719 19.351562 L 10.140625 19.351562 L 10.140625 19.78125 L 10.203125 19.78125 L 10.203125 19.601562 Z M 10.210938 19.402344 L 10.261719 19.402344 C 10.300781 19.402344 10.328125 19.410156 10.34375 19.421875 C 10.359375 19.433594 10.363281 19.449219 10.363281 19.476562 C 10.363281 19.523438 10.332031 19.546875 10.273438 19.546875 L 10.207031 19.546875 L 10.207031 19.402344 Z M 0.367188 19.5625 C 0.367188 19.414062 0.363281 19.300781 0.359375 19.238281 L 0.363281 19.238281 C 0.375 19.3125 0.394531 19.371094 0.410156 19.410156 L 0.984375 20.6875 L 1.078125 20.6875 L 1.652344 19.398438 C 1.667969 19.363281 1.683594 19.3125 1.703125 19.238281 L 1.707031 19.238281 C 1.695312 19.347656 1.691406 19.453125 1.691406 19.5625 L 1.691406 20.691406 L 1.886719 20.691406 L 1.886719 19.015625 L 1.640625 19.015625 L 1.113281 20.183594 C 1.09375 20.226562 1.070312 20.296875 1.035156 20.390625 L 1.027344 20.390625 C 1.007812 20.320312 0.980469 20.253906 0.949219 20.191406 L 0.433594 19.011719 L 0.175781 19.011719 L 0.175781 20.6875 L 0.363281 20.6875 L 0.363281 19.5625 Z M 2.316406 19.566406 L 2.484375 19.566406 L 2.484375 20.609375 L 2.316406 20.609375 Z M 2.398438 19.183594 C 2.433594 19.183594 2.464844 19.171875 2.488281 19.148438 C 2.511719 19.125 2.527344 19.09375 2.527344 19.058594 C 2.527344 19.027344 2.515625 18.996094 2.488281 18.972656 C 2.464844 18.949219 2.433594 18.9375 2.398438 18.9375 C 2.367188 18.9375 2.335938 18.949219 2.3125 18.972656 C 2.289062 18.996094 2.273438 19.027344 2.273438 19.058594 C 2.273438 19.097656 2.285156 19.125 2.3125 19.148438 C 2.335938 19.171875 2.367188 19.183594 2.398438 19.183594 Z M 3.6875 20.632812 L 3.6875 20.449219 C 3.597656 20.519531 3.496094 20.554688 3.394531 20.554688 C 3.269531 20.554688 3.171875 20.511719 3.097656 20.429688 C 3.027344 20.351562 2.988281 20.238281 2.988281 20.101562 C 2.988281 19.953125 3.027344 19.839844 3.105469 19.75 C 3.183594 19.667969 3.28125 19.625 3.40625 19.625 C 3.503906 19.625 3.601562 19.65625 3.6875 19.71875 L 3.6875 19.519531 C 3.609375 19.480469 3.515625 19.460938 3.414062 19.460938 C 3.222656 19.460938 3.070312 19.519531 2.960938 19.640625 C 2.847656 19.757812 2.792969 19.921875 2.792969 20.117188 C 2.792969 20.289062 2.839844 20.433594 2.945312 20.546875 C 3.050781 20.660156 3.191406 20.71875 3.359375 20.71875 C 3.488281 20.714844 3.597656 20.6875 3.6875 20.632812 M 4.171875 20.078125 C 4.171875 19.9375 4.203125 19.828125 4.261719 19.75 C 4.316406 19.683594 4.378906 19.648438 4.457031 19.648438 C 4.523438 19.648438 4.566406 19.660156 4.601562 19.6875 L 4.601562 19.484375 C 4.574219 19.476562 4.539062 19.472656 4.488281 19.472656 C 4.417969 19.472656 4.355469 19.496094 4.300781 19.535156 C 4.246094 19.582031 4.199219 19.652344 4.171875 19.738281 L 4.167969 19.738281 L 4.167969 19.496094 L 3.976562 19.496094 L 3.976562 20.691406 L 4.167969 20.691406 L 4.167969 20.078125 Z M 5.273438 20.714844 C 5.453125 20.714844 5.601562 20.65625 5.707031 20.542969 C 5.816406 20.425781 5.867188 20.273438 5.867188 20.082031 C 5.867188 19.886719 5.820312 19.734375 5.71875 19.625 C 5.621094 19.511719 5.480469 19.460938 5.300781 19.460938 C 5.121094 19.460938 4.976562 19.511719 4.867188 19.617188 C 4.753906 19.730469 4.691406 19.894531 4.691406 20.101562 C 4.691406 20.28125 4.742188 20.429688 4.84375 20.542969 C 4.953125 20.65625 5.09375 20.714844 5.273438 20.714844 Z M 5 19.738281 C 5.074219 19.664062 5.171875 19.625 5.289062 19.625 C 5.414062 19.625 5.503906 19.664062 5.574219 19.738281 C 5.644531 19.820312 5.675781 19.933594 5.675781 20.089844 C 5.675781 20.234375 5.644531 20.351562 5.582031 20.425781 C 5.515625 20.507812 5.421875 20.550781 5.292969 20.550781 C 5.171875 20.550781 5.074219 20.507812 5 20.425781 C 4.929688 20.347656 4.894531 20.234375 4.894531 20.089844 C 4.886719 19.945312 4.925781 19.824219 5 19.738281 M 6.710938 20.609375 C 6.78125 20.546875 6.820312 20.464844 6.820312 20.363281 C 6.824219 20.285156 6.789062 20.203125 6.734375 20.144531 C 6.6875 20.101562 6.613281 20.058594 6.507812 20.015625 C 6.417969 19.976562 6.359375 19.941406 6.328125 19.917969 C 6.296875 19.882812 6.277344 19.839844 6.28125 19.792969 C 6.28125 19.742188 6.300781 19.703125 6.335938 19.675781 C 6.375 19.644531 6.425781 19.628906 6.492188 19.628906 C 6.59375 19.628906 6.683594 19.65625 6.761719 19.714844 L 6.761719 19.519531 C 6.683594 19.480469 6.59375 19.460938 6.507812 19.464844 C 6.382812 19.464844 6.277344 19.5 6.203125 19.5625 C 6.125 19.625 6.082031 19.714844 6.082031 19.8125 C 6.082031 19.902344 6.109375 19.972656 6.160156 20.027344 C 6.203125 20.074219 6.273438 20.121094 6.375 20.160156 C 6.472656 20.203125 6.535156 20.242188 6.570312 20.273438 C 6.605469 20.300781 6.621094 20.34375 6.621094 20.386719 C 6.621094 20.5 6.542969 20.558594 6.394531 20.558594 C 6.277344 20.558594 6.175781 20.519531 6.082031 20.441406 L 6.082031 20.648438 C 6.167969 20.699219 6.265625 20.722656 6.378906 20.722656 C 6.519531 20.714844 6.632812 20.679688 6.707031 20.609375 Z M 7.621094 19.460938 C 7.441406 19.460938 7.296875 19.511719 7.1875 19.617188 C 7.074219 19.730469 7.011719 19.894531 7.011719 20.101562 C 7.011719 20.28125 7.0625 20.429688 7.167969 20.542969 C 7.273438 20.65625 7.417969 20.714844 7.597656 20.714844 C 7.78125 20.714844 7.921875 20.65625 8.03125 20.542969 C 8.136719 20.425781 8.191406 20.273438 8.191406 20.082031 C 8.191406 19.886719 8.140625 19.734375 8.042969 19.625 C 7.9375 19.511719 7.800781 19.460938 7.625 19.460938 Z M 7.996094 20.089844 C 7.996094 20.234375 7.964844 20.351562 7.898438 20.425781 C 7.832031 20.507812 7.738281 20.550781 7.609375 20.550781 C 7.488281 20.550781 7.394531 20.507812 7.320312 20.425781 C 7.246094 20.347656 7.210938 20.234375 7.210938 20.089844 C 7.210938 19.933594 7.25 19.816406 7.328125 19.734375 C 7.398438 19.660156 7.496094 19.621094 7.617188 19.621094 C 7.734375 19.621094 7.828125 19.660156 7.898438 19.734375 C 7.960938 19.820312 7.996094 19.933594 7.996094 20.089844 Z M 8.511719 20.6875 L 8.707031 20.6875 L 8.707031 19.652344 L 8.984375 19.652344 L 8.984375 19.488281 L 8.707031 19.488281 L 8.707031 19.304688 C 8.707031 19.136719 8.769531 19.054688 8.90625 19.054688 C 8.949219 19.054688 8.996094 19.0625 9.03125 19.082031 L 9.03125 18.910156 C 8.996094 18.894531 8.949219 18.890625 8.890625 18.890625 C 8.789062 18.890625 8.703125 18.921875 8.636719 18.988281 C 8.554688 19.0625 8.511719 19.164062 8.511719 19.296875 L 8.511719 19.496094 L 8.308594 19.496094 L 8.308594 19.65625 L 8.511719 19.65625 Z M 9.300781 20.359375 C 9.300781 20.59375 9.402344 20.714844 9.613281 20.714844 C 9.691406 20.714844 9.75 20.703125 9.796875 20.675781 L 9.796875 20.511719 C 9.757812 20.535156 9.714844 20.550781 9.671875 20.550781 C 9.605469 20.550781 9.5625 20.535156 9.535156 20.5 C 9.507812 20.464844 9.492188 20.40625 9.492188 20.328125 L 9.492188 19.652344 L 9.796875 19.652344 L 9.796875 19.488281 L 9.492188 19.488281 L 9.492188 19.136719 C 9.425781 19.160156 9.359375 19.179688 9.300781 19.199219 L 9.300781 19.488281 L 9.09375 19.488281 L 9.09375 19.652344 L 9.300781 19.652344 Z M 29.898438 22.566406 C 29.832031 22.507812 29.746094 22.472656 29.660156 22.476562 C 29.5625 22.476562 29.484375 22.507812 29.417969 22.574219 C 29.351562 22.636719 29.320312 22.71875 29.320312 22.808594 C 29.320312 22.90625 29.351562 22.984375 29.417969 23.046875 C 29.480469 23.109375 29.5625 23.140625 29.660156 23.140625 C 29.753906 23.140625 29.835938 23.109375 29.902344 23.042969 C 29.964844 22.976562 30 22.902344 30 22.804688 C 29.996094 22.710938 29.960938 22.628906 29.898438 22.566406 Z M 29.867188 23.019531 C 29.8125 23.078125 29.734375 23.109375 29.65625 23.105469 C 29.570312 23.105469 29.5 23.078125 29.445312 23.019531 C 29.386719 22.964844 29.355469 22.886719 29.355469 22.804688 C 29.355469 22.722656 29.382812 22.652344 29.441406 22.59375 C 29.496094 22.539062 29.566406 22.511719 29.65625 22.511719 C 29.738281 22.511719 29.808594 22.539062 29.867188 22.59375 C 29.921875 22.652344 29.953125 22.722656 29.953125 22.804688 C 29.953125 22.894531 29.929688 22.964844 29.867188 23.019531 M 29.695312 22.824219 C 29.722656 22.820312 29.753906 22.804688 29.773438 22.785156 C 29.792969 22.761719 29.800781 22.734375 29.800781 22.707031 C 29.800781 22.671875 29.789062 22.644531 29.765625 22.625 C 29.738281 22.601562 29.699219 22.589844 29.644531 22.589844 L 29.519531 22.589844 L 29.519531 23.019531 L 29.582031 23.019531 L 29.582031 22.839844 L 29.621094 22.839844 C 29.648438 22.839844 29.671875 22.867188 29.699219 22.917969 L 29.742188 23.019531 L 29.816406 23.019531 L 29.757812 22.90625 C 29.738281 22.855469 29.714844 22.832031 29.691406 22.824219 Z M 29.652344 22.785156 L 29.585938 22.785156 L 29.585938 22.640625 L 29.640625 22.640625 C 29.679688 22.640625 29.703125 22.648438 29.71875 22.660156 C 29.734375 22.671875 29.738281 22.6875 29.738281 22.714844 C 29.738281 22.765625 29.707031 22.785156 29.652344 22.785156 Z M 18.945312 19.441406 L 18.996094 19.441406 L 18.996094 19.011719 L 19.140625 19.011719 L 19.140625 18.957031 L 18.800781 18.957031 L 18.800781 19.011719 L 18.945312 19.011719 Z M 19.269531 19.117188 C 19.269531 19.074219 19.269531 19.042969 19.265625 19.023438 C 19.269531 19.042969 19.277344 19.058594 19.28125 19.070312 L 19.445312 19.441406 L 19.472656 19.441406 L 19.640625 19.066406 C 19.644531 19.058594 19.648438 19.042969 19.652344 19.023438 C 19.652344 19.058594 19.652344 19.089844 19.652344 19.113281 L 19.652344 19.441406 L 19.707031 19.441406 L 19.707031 18.957031 L 19.640625 18.957031 L 19.488281 19.289062 C 19.484375 19.300781 19.472656 19.324219 19.464844 19.351562 L 19.460938 19.351562 C 19.457031 19.335938 19.449219 19.320312 19.441406 19.296875 L 19.289062 18.957031 L 19.210938 18.957031 L 19.210938 19.441406 L 19.265625 19.441406 L 19.265625 19.117188 Z M 19.269531 19.117188 "/>
</g>
</svg>
