<?xml version="1.0" encoding="UTF-8"?>
<svg xmlns="http://www.w3.org/2000/svg" xmlns:xlink="http://www.w3.org/1999/xlink" width="30px" height="px" viewBox="0 0 30 30" version="1.1">
<g id="surface1">
<path style=" stroke:none;fill-rule:nonzero;fill:rgb(0%,45.882353%,56.078434%);fill-opacity:1;" d="M 8.925781 18.269531 L 9.835938 21.226562 C 10.039062 21.898438 10.125 22.367188 10.09375 22.636719 C 10.589844 21.300781 10.9375 19.84375 11.136719 18.269531 L 12.234375 18.269531 C 11.761719 20.832031 11.140625 22.699219 10.367188 23.859375 C 9.769531 24.753906 9.109375 25.203125 8.390625 25.203125 C 8.199219 25.203125 7.964844 25.144531 7.683594 25.03125 L 7.683594 24.414062 C 7.820312 24.433594 7.980469 24.445312 8.167969 24.445312 C 8.5 24.445312 8.769531 24.351562 8.976562 24.164062 C 9.222656 23.941406 9.34375 23.6875 9.34375 23.40625 C 9.34375 23.214844 9.25 22.820312 9.058594 22.226562 L 7.789062 18.269531 Z M 1.945312 16.449219 L 3.617188 21.546875 L 3.625 21.546875 L 5.308594 16.449219 L 6.679688 16.449219 C 6.980469 18.976562 7.15625 21.289062 7.210938 23.386719 L 6.054688 23.386719 C 6.015625 21.425781 5.902344 19.585938 5.71875 17.859375 L 5.707031 17.859375 L 3.945312 23.386719 L 3.0625 23.386719 L 1.3125 17.859375 L 1.300781 17.859375 C 1.171875 19.515625 1.089844 21.359375 1.054688 23.386719 L 0 23.386719 C 0.0664062 20.917969 0.238281 18.609375 0.511719 16.449219 Z M 1.945312 16.449219 "/>
<path style=" stroke:none;fill-rule:nonzero;fill:rgb(94.901961%,56.862748%,6.666667%);fill-opacity:1;" d="M 20.652344 16.347656 C 22.449219 16.347656 23.347656 17.496094 23.347656 19.789062 C 23.347656 21.035156 23.078125 21.976562 22.539062 22.613281 C 22.441406 22.730469 22.335938 22.832031 22.222656 22.925781 L 23.492188 23.550781 L 23.039062 24.332031 L 21.382812 23.367188 C 21.109375 23.449219 20.808594 23.488281 20.480469 23.488281 C 19.597656 23.488281 18.9375 23.230469 18.503906 22.71875 C 18.023438 22.148438 17.785156 21.253906 17.785156 20.035156 C 17.785156 18.796875 18.054688 17.859375 18.59375 17.222656 C 19.085938 16.640625 19.773438 16.347656 20.652344 16.347656 Z M 15.152344 16.359375 C 15.796875 16.359375 16.378906 16.53125 16.90625 16.871094 L 16.636719 17.46875 C 16.1875 17.277344 15.746094 17.179688 15.308594 17.179688 C 14.953125 17.179688 14.679688 17.265625 14.488281 17.4375 C 14.296875 17.609375 14.175781 17.828125 14.175781 18.09375 C 14.175781 18.503906 14.46875 18.863281 15.011719 19.164062 C 15.1875 19.257812 15.363281 19.355469 15.539062 19.457031 L 15.578125 19.480469 L 15.601562 19.488281 L 15.699219 19.546875 C 16.109375 19.777344 16.496094 19.996094 16.496094 19.996094 C 17.035156 20.382812 17.304688 20.789062 17.304688 21.464844 C 17.304688 22.050781 17.089844 22.535156 16.660156 22.910156 C 16.230469 23.289062 15.652344 23.476562 14.929688 23.476562 C 14.25 23.476562 13.597656 23.257812 12.960938 22.828125 L 13.257812 22.234375 C 13.804688 22.507812 14.300781 22.644531 14.742188 22.644531 C 15.160156 22.644531 15.484375 22.550781 15.722656 22.367188 C 15.957031 22.183594 16.097656 21.925781 16.097656 21.597656 C 16.097656 21.1875 15.8125 20.832031 15.285156 20.539062 C 15.121094 20.449219 14.957031 20.355469 14.792969 20.261719 L 14.753906 20.242188 C 14.679688 20.199219 14.605469 20.15625 14.53125 20.113281 L 14.492188 20.09375 C 14.136719 19.890625 13.832031 19.714844 13.832031 19.714844 C 13.304688 19.332031 13.042969 18.917969 13.042969 18.238281 C 13.042969 17.675781 13.238281 17.222656 13.632812 16.878906 C 14.023438 16.53125 14.53125 16.359375 15.152344 16.359375 Z M 25.460938 16.449219 L 25.460938 22.53125 L 27.640625 22.53125 L 27.640625 23.386719 L 24.351562 23.386719 L 24.351562 16.449219 Z M 28.855469 22.535156 L 28.855469 22.679688 L 28.613281 22.679688 L 28.613281 23.382812 L 28.429688 23.382812 L 28.429688 22.679688 L 28.179688 22.679688 L 28.179688 22.535156 Z M 29.296875 22.535156 L 29.527344 23.113281 L 29.738281 22.535156 L 30 22.535156 L 30 23.382812 L 29.824219 23.382812 L 29.824219 22.738281 L 29.585938 23.382812 L 29.460938 23.382812 L 29.21875 22.738281 L 29.210938 22.738281 L 29.210938 23.382812 L 29.046875 23.382812 L 29.046875 22.535156 Z M 20.542969 17.199219 C 19.484375 17.199219 18.953125 18.074219 18.953125 19.820312 C 18.953125 20.820312 19.09375 21.546875 19.375 22 C 19.632812 22.417969 20.039062 22.625 20.59375 22.625 C 21.652344 22.625 22.179688 21.746094 22.179688 19.984375 C 22.179688 19 22.039062 18.28125 21.761719 17.828125 C 21.5 17.410156 21.09375 17.199219 20.542969 17.199219 Z M 20.542969 17.199219 "/>
<path style=" stroke:none;fill-rule:nonzero;fill:rgb(0%,45.882353%,56.078434%);fill-opacity:1;" d="M 17.765625 5.203125 C 18.117188 4.34375 19.34375 4.996094 19.820312 5.296875 C 19.9375 5.371094 20.074219 5.53125 20.207031 5.589844 C 20.414062 5.597656 20.625 5.613281 20.832031 5.625 C 21.226562 5.714844 21.59375 5.792969 21.902344 5.96875 C 23.339844 6.8125 24.277344 7.675781 25.136719 9.101562 C 25.320312 9.402344 25.414062 9.730469 25.5625 10.054688 C 25.773438 10.542969 26.007812 11.054688 26.246094 11.515625 C 26.355469 11.730469 26.441406 11.976562 26.589844 12.160156 C 26.648438 12.242188 26.816406 12.269531 26.917969 12.320312 C 27.191406 12.460938 27.527344 12.570312 27.785156 12.738281 C 28.269531 13.039062 28.738281 13.398438 29.164062 13.769531 C 29.324219 13.910156 29.429688 14.113281 29.582031 14.261719 L 29.582031 14.339844 C 29.449219 14.378906 29.316406 14.421875 29.179688 14.457031 C 28.886719 14.53125 28.628906 14.511719 28.34375 14.589844 C 28.171875 14.640625 27.953125 14.707031 27.769531 14.722656 L 27.785156 14.742188 C 27.894531 15.050781 28.480469 15.300781 28.746094 15.484375 C 29.070312 15.71875 29.375 16.003906 29.617188 16.332031 C 29.699219 16.414062 29.78125 16.492188 29.867188 16.574219 C 29.925781 16.660156 29.941406 16.765625 30 16.84375 L 30 16.867188 C 29.933594 16.84375 29.886719 16.800781 29.84375 16.753906 L 29.816406 16.726562 C 29.789062 16.699219 29.761719 16.671875 29.734375 16.652344 C 29.546875 16.523438 29.367188 16.375 29.179688 16.257812 C 28.863281 16.054688 28.496094 15.9375 28.171875 15.738281 C 27.984375 15.621094 27.8125 15.484375 27.636719 15.351562 C 27.476562 15.234375 27.300781 15.007812 27.199219 14.839844 C 27.140625 14.75 27.132812 14.640625 27.066406 14.574219 C 27.078125 14.460938 27.179688 14.425781 27.285156 14.398438 L 27.308594 14.394531 C 27.34375 14.382812 27.378906 14.375 27.410156 14.363281 C 27.84375 14.179688 28.363281 14.113281 29.03125 14.128906 C 29.003906 13.960938 28.585938 13.75 28.453125 13.652344 C 28.1875 13.457031 27.902344 13.257812 27.617188 13.082031 C 27.46875 12.988281 27.207031 12.921875 27.042969 12.847656 C 26.816406 12.753906 26.316406 12.660156 26.191406 12.484375 C 25.976562 12.210938 25.824219 11.878906 25.675781 11.546875 L 25.636719 11.453125 C 25.625 11.425781 25.609375 11.394531 25.597656 11.363281 C 25.421875 10.960938 25.203125 10.542969 25.027344 10.132812 C 24.9375 9.929688 24.894531 9.753906 24.792969 9.5625 C 24.183594 8.378906 23.28125 7.390625 22.1875 6.695312 C 21.828125 6.46875 21.425781 6.261719 20.984375 6.117188 C 20.734375 6.042969 20.433594 6.085938 20.164062 6.027344 L 19.988281 6.027344 C 19.839844 5.984375 19.714844 5.824219 19.597656 5.742188 C 19.335938 5.566406 19.078125 5.449219 18.769531 5.320312 C 18.660156 5.273438 18.351562 5.15625 18.242188 5.246094 C 18.175781 5.265625 18.140625 5.289062 18.125 5.355469 C 18.058594 5.457031 18.117188 5.605469 18.160156 5.699219 C 18.285156 5.96875 18.460938 6.125 18.621094 6.351562 C 18.761719 6.554688 18.9375 6.78125 19.035156 7 C 19.253906 7.46875 19.355469 7.988281 19.554688 8.457031 C 19.628906 8.632812 19.746094 8.832031 19.855469 8.992188 C 19.949219 9.117188 20.113281 9.210938 20.164062 9.371094 C 20.265625 9.535156 20.015625 10.089844 19.957031 10.265625 C 19.738281 10.953125 19.78125 11.90625 20.03125 12.503906 L 20.042969 12.535156 L 20.058594 12.566406 C 20.148438 12.785156 20.246094 13.019531 20.492188 13.082031 C 20.507812 13.0625 20.492188 13.074219 20.523438 13.0625 C 20.582031 12.601562 20.597656 12.160156 20.757812 11.796875 C 20.851562 11.574219 21.035156 11.414062 21.160156 11.230469 C 21.242188 11.28125 21.242188 11.429688 21.292969 11.53125 C 21.402344 11.789062 21.519531 12.074219 21.652344 12.335938 C 21.925781 12.871094 22.238281 13.390625 22.589844 13.859375 C 22.707031 14.027344 22.871094 14.210938 23.023438 14.363281 C 23.089844 14.421875 23.164062 14.457031 23.214844 14.53125 L 23.230469 14.53125 L 23.230469 14.554688 C 22.980469 14.464844 22.820312 14.203125 22.621094 14.050781 C 22.246094 13.769531 21.792969 13.339844 21.535156 12.929688 C 21.425781 12.695312 21.308594 12.46875 21.191406 12.234375 L 21.191406 12.21875 C 21.140625 12.285156 21.160156 12.351562 21.132812 12.453125 C 21.027344 12.871094 21.109375 13.347656 20.734375 13.5 C 20.308594 13.675781 19.988281 13.214844 19.855469 13.003906 C 19.429688 12.308594 19.3125 11.136719 19.613281 10.191406 C 19.679688 9.980469 19.6875 9.730469 19.804688 9.5625 C 19.78125 9.410156 19.664062 9.371094 19.597656 9.277344 C 19.480469 9.117188 19.378906 8.933594 19.289062 8.757812 C 19.113281 8.414062 18.988281 8.003906 18.851562 7.636719 C 18.792969 7.484375 18.777344 7.332031 18.71875 7.191406 C 18.621094 6.972656 18.433594 6.753906 18.292969 6.5625 C 18.101562 6.285156 17.539062 5.75 17.765625 5.203125 Z M 20.507812 6.847656 C 20.53125 6.867188 20.554688 6.886719 20.585938 6.90625 L 20.617188 6.929688 C 20.664062 6.960938 20.707031 6.996094 20.734375 7.039062 C 20.773438 7.097656 20.78125 7.15625 20.832031 7.214844 C 20.832031 7.417969 20.773438 7.550781 20.65625 7.632812 C 20.65625 7.632812 20.648438 7.644531 20.640625 7.652344 C 20.574219 7.515625 20.515625 7.382812 20.449219 7.25 C 20.367188 7.132812 20.25 7.039062 20.179688 6.90625 L 20.164062 6.90625 L 20.164062 6.886719 C 20.265625 6.863281 20.367188 6.847656 20.507812 6.847656 Z M 20.507812 6.847656 "/>
</g>
</svg>
