<?xml version="1.0" encoding="UTF-8"?>
<svg xmlns="http://www.w3.org/2000/svg" xmlns:xlink="http://www.w3.org/1999/xlink" width="30px" height="30px" viewBox="0 0 30 30" version="1.1">
<g id="surface1">
<path style=" stroke:none;fill-rule:nonzero;fill:rgb(32.549021%,61.960787%,26.274511%);fill-opacity:1;" d="M 15 29.945312 C 14.585938 29.945312 14.203125 29.835938 13.84375 29.640625 L 10.1875 27.46875 C 9.636719 27.164062 9.910156 27.054688 10.074219 27 C 10.820312 26.753906 10.957031 26.699219 11.726562 26.257812 C 11.808594 26.203125 11.917969 26.230469 12 26.285156 L 14.808594 27.964844 C 14.917969 28.019531 15.054688 28.019531 15.136719 27.964844 L 26.113281 21.609375 C 26.222656 21.554688 26.277344 21.445312 26.277344 21.304688 L 26.277344 8.625 C 26.277344 8.488281 26.222656 8.375 26.113281 8.320312 L 15.136719 1.996094 C 15.027344 1.9375 14.890625 1.9375 14.808594 1.996094 L 3.832031 8.320312 C 3.722656 8.375 3.664062 8.515625 3.664062 8.625 L 3.664062 21.304688 C 3.664062 21.417969 3.722656 21.554688 3.832031 21.609375 L 6.828125 23.34375 C 8.453125 24.167969 9.46875 23.203125 9.46875 22.242188 L 9.46875 9.722656 C 9.46875 9.558594 9.609375 9.394531 9.800781 9.394531 L 11.203125 9.394531 C 11.367188 9.394531 11.535156 9.53125 11.535156 9.722656 L 11.535156 22.242188 C 11.535156 24.414062 10.351562 25.679688 8.289062 25.679688 C 7.65625 25.679688 7.160156 25.679688 5.757812 24.992188 L 2.867188 23.34375 C 2.152344 22.929688 1.710938 22.160156 1.710938 21.332031 L 1.710938 8.652344 C 1.710938 7.828125 2.152344 7.054688 2.867188 6.644531 L 13.84375 0.289062 C 14.53125 -0.0976562 15.46875 -0.0976562 16.15625 0.289062 L 27.132812 6.644531 C 27.847656 7.054688 28.289062 7.828125 28.289062 8.652344 L 28.289062 21.332031 C 28.289062 22.160156 27.847656 22.929688 27.132812 23.34375 L 16.15625 29.695312 C 15.796875 29.863281 15.386719 29.945312 15 29.945312 Z M 18.382812 21.222656 C 13.570312 21.222656 12.578125 19.023438 12.578125 17.152344 C 12.578125 16.988281 12.714844 16.820312 12.910156 16.820312 L 14.339844 16.820312 C 14.503906 16.820312 14.640625 16.933594 14.640625 17.097656 C 14.863281 18.554688 15.496094 19.269531 18.410156 19.269531 C 20.722656 19.269531 21.710938 18.746094 21.710938 17.511719 C 21.710938 16.792969 21.4375 16.273438 17.832031 15.914062 C 14.835938 15.613281 12.964844 14.953125 12.964844 12.558594 C 12.964844 10.328125 14.835938 9.007812 17.972656 9.007812 C 21.492188 9.007812 23.226562 10.21875 23.445312 12.859375 C 23.445312 12.941406 23.417969 13.027344 23.363281 13.109375 C 23.308594 13.164062 23.226562 13.21875 23.144531 13.21875 L 21.710938 13.21875 C 21.574219 13.21875 21.4375 13.109375 21.410156 12.972656 C 21.078125 11.457031 20.226562 10.960938 17.972656 10.960938 C 15.441406 10.960938 15.136719 11.84375 15.136719 12.503906 C 15.136719 13.300781 15.496094 13.546875 18.90625 13.988281 C 22.289062 14.429688 23.886719 15.0625 23.886719 17.425781 C 23.859375 19.847656 21.878906 21.222656 18.382812 21.222656 Z M 18.382812 21.222656 "/>
</g>
</svg>
