<?xml version="1.0" encoding="UTF-8"?>
<svg xmlns="http://www.w3.org/2000/svg" xmlns:xlink="http://www.w3.org/1999/xlink" width="30px" height="px" viewBox="0 0 30 30" version="1.1">
<defs>
<radialGradient id="radial0" gradientUnits="userSpaceOnUse" cx="0" cy="0" fx="0" fy="0" r="1" gradientTransform="matrix(19.697194,0,0,19.697194,9.006093,9.883359)">
<stop offset="0" style="stop-color:rgb(68.235294%,69.803922%,83.529412%);stop-opacity:1;"/>
<stop offset="0.3" style="stop-color:rgb(68.235294%,69.803922%,83.529412%);stop-opacity:1;"/>
<stop offset="0.75" style="stop-color:rgb(28.235294%,29.803922%,53.72549%);stop-opacity:1;"/>
<stop offset="1" style="stop-color:rgb(28.235294%,29.803922%,53.72549%);stop-opacity:1;"/>
</radialGradient>
</defs>
<g id="surface1">
<path style=" stroke:none;fill-rule:nonzero;fill:url(#radial0);" d="M 0 15 C 0 19.359375 6.714844 22.890625 15 22.890625 C 23.285156 22.890625 30 19.359375 30 15 C 30 10.640625 23.285156 7.109375 15 7.109375 C 6.714844 7.109375 0 10.640625 0 15 Z M 0 15 "/>
<path style=" stroke:none;fill-rule:nonzero;fill:rgb(46.666667%,48.235294%,70.19608%);fill-opacity:1;" d="M 15 22.304688 C 22.960938 22.304688 29.414062 19.035156 29.414062 15 C 29.414062 10.964844 22.960938 7.695312 15 7.695312 C 7.039062 7.695312 0.585938 10.964844 0.585938 15 C 0.585938 19.035156 7.039062 22.304688 15 22.304688 Z M 15 22.304688 "/>
<path style=" stroke:none;fill-rule:nonzero;fill:rgb(0%,0%,0%);fill-opacity:1;" d="M 8.148438 15.90625 C 8.804688 15.90625 9.292969 15.785156 9.601562 15.546875 C 9.90625 15.3125 10.121094 14.902344 10.230469 14.335938 C 10.332031 13.800781 10.292969 13.429688 10.113281 13.230469 C 9.929688 13.023438 9.527344 12.921875 8.925781 12.921875 L 7.878906 12.921875 L 7.300781 15.90625 Z M 4.726562 19.582031 C 4.679688 19.582031 4.632812 19.558594 4.601562 19.523438 C 4.570312 19.484375 4.558594 19.433594 4.570312 19.386719 L 6.105469 11.480469 C 6.121094 11.402344 6.1875 11.347656 6.265625 11.347656 L 9.578125 11.347656 C 10.617188 11.347656 11.394531 11.632812 11.878906 12.1875 C 12.371094 12.75 12.523438 13.53125 12.328125 14.515625 C 12.25 14.917969 12.117188 15.289062 11.929688 15.625 C 11.738281 15.96875 11.488281 16.277344 11.199219 16.542969 C 10.839844 16.878906 10.433594 17.121094 9.992188 17.265625 C 9.558594 17.40625 9 17.480469 8.335938 17.480469 L 6.992188 17.480469 L 6.609375 19.449219 C 6.59375 19.527344 6.527344 19.582031 6.449219 19.582031 Z M 4.726562 19.582031 "/>
<path style=" stroke:none;fill-rule:nonzero;fill:rgb(100%,100%,100%);fill-opacity:1;" d="M 8.011719 13.085938 L 8.925781 13.085938 C 9.652344 13.085938 9.90625 13.242188 9.992188 13.339844 C 10.132812 13.496094 10.160156 13.832031 10.070312 14.304688 C 9.96875 14.832031 9.777344 15.207031 9.503906 15.417969 C 9.222656 15.632812 8.765625 15.742188 8.148438 15.742188 L 7.496094 15.742188 Z M 9.578125 11.1875 L 6.265625 11.1875 C 6.109375 11.1875 5.976562 11.296875 5.945312 11.449219 L 4.410156 19.355469 C 4.390625 19.453125 4.414062 19.550781 4.476562 19.625 C 4.539062 19.699219 4.632812 19.742188 4.726562 19.742188 L 6.449219 19.742188 C 6.605469 19.742188 6.742188 19.632812 6.769531 19.480469 L 7.128906 17.640625 L 8.335938 17.640625 C 9.015625 17.640625 9.59375 17.566406 10.042969 17.421875 C 10.507812 17.269531 10.933594 17.015625 11.308594 16.660156 C 11.613281 16.386719 11.871094 16.0625 12.074219 15.703125 C 12.269531 15.355469 12.410156 14.964844 12.488281 14.546875 C 12.691406 13.511719 12.527344 12.679688 12.003906 12.082031 C 11.484375 11.488281 10.667969 11.1875 9.578125 11.1875 Z M 7.101562 16.066406 L 8.148438 16.066406 C 8.84375 16.066406 9.363281 15.9375 9.703125 15.675781 C 10.042969 15.414062 10.269531 14.976562 10.390625 14.363281 C 10.503906 13.777344 10.453125 13.363281 10.234375 13.121094 C 10.015625 12.878906 9.578125 12.757812 8.925781 12.757812 L 7.746094 12.757812 L 7.101562 16.066406 M 9.578125 11.511719 C 10.574219 11.511719 11.300781 11.773438 11.757812 12.296875 C 12.214844 12.820312 12.351562 13.546875 12.171875 14.484375 C 12.09375 14.871094 11.96875 15.226562 11.789062 15.542969 C 11.609375 15.863281 11.378906 16.15625 11.089844 16.421875 C 10.746094 16.746094 10.363281 16.972656 9.941406 17.109375 C 9.523438 17.246094 8.984375 17.316406 8.335938 17.316406 L 6.859375 17.316406 L 6.449219 19.417969 L 4.726562 19.417969 L 6.265625 11.511719 L 9.578125 11.511719 "/>
<path style=" stroke:none;fill-rule:nonzero;fill:rgb(0%,0%,0%);fill-opacity:1;" d="M 16.28125 17.480469 C 16.230469 17.480469 16.183594 17.457031 16.152344 17.417969 C 16.121094 17.382812 16.109375 17.332031 16.121094 17.285156 L 16.800781 13.785156 C 16.863281 13.453125 16.847656 13.214844 16.753906 13.113281 C 16.699219 13.050781 16.523438 12.949219 16.015625 12.949219 L 14.785156 12.949219 L 13.929688 17.347656 C 13.914062 17.425781 13.847656 17.480469 13.769531 17.480469 L 12.0625 17.480469 C 12.011719 17.480469 11.964844 17.457031 11.9375 17.417969 C 11.90625 17.382812 11.890625 17.332031 11.902344 17.285156 L 13.4375 9.378906 C 13.453125 9.300781 13.519531 9.246094 13.597656 9.246094 L 15.308594 9.246094 C 15.355469 9.246094 15.402344 9.269531 15.433594 9.304688 C 15.464844 9.34375 15.476562 9.390625 15.46875 9.441406 L 15.097656 11.347656 L 16.421875 11.347656 C 17.429688 11.347656 18.113281 11.527344 18.511719 11.890625 C 18.917969 12.265625 19.046875 12.863281 18.890625 13.667969 L 18.175781 17.347656 C 18.160156 17.421875 18.09375 17.480469 18.015625 17.480469 Z M 16.28125 17.480469 "/>
<path style=" stroke:none;fill-rule:nonzero;fill:rgb(100%,100%,100%);fill-opacity:1;" d="M 15.308594 9.082031 L 13.597656 9.082031 C 13.441406 9.082031 13.308594 9.195312 13.277344 9.347656 L 11.742188 17.253906 C 11.722656 17.347656 11.75 17.449219 11.808594 17.523438 C 11.871094 17.597656 11.964844 17.640625 12.0625 17.640625 L 13.769531 17.640625 C 13.925781 17.640625 14.058594 17.53125 14.089844 17.378906 L 14.917969 13.113281 L 16.015625 13.113281 C 16.523438 13.113281 16.632812 13.21875 16.636719 13.226562 C 16.664062 13.257812 16.707031 13.410156 16.640625 13.753906 L 15.960938 17.253906 C 15.941406 17.347656 15.964844 17.449219 16.027344 17.523438 C 16.089844 17.597656 16.183594 17.640625 16.28125 17.640625 L 18.015625 17.640625 C 18.171875 17.640625 18.304688 17.53125 18.335938 17.378906 L 19.050781 13.699219 C 19.21875 12.835938 19.074219 12.1875 18.625 11.773438 C 18.195312 11.378906 17.472656 11.1875 16.421875 11.1875 L 15.292969 11.1875 L 15.625 9.472656 C 15.644531 9.375 15.621094 9.277344 15.558594 9.203125 C 15.496094 9.125 15.402344 9.082031 15.308594 9.082031 Z M 15.308594 9.410156 L 14.898438 11.511719 L 16.421875 11.511719 C 17.378906 11.511719 18.039062 11.679688 18.402344 12.011719 C 18.765625 12.347656 18.875 12.886719 18.730469 13.636719 L 18.015625 17.316406 L 16.28125 17.316406 L 16.960938 13.816406 C 17.035156 13.417969 17.007812 13.148438 16.875 13.003906 C 16.738281 12.859375 16.453125 12.785156 16.015625 12.785156 L 14.648438 12.785156 L 13.769531 17.316406 L 12.0625 17.316406 L 13.597656 9.410156 Z M 15.308594 9.410156 "/>
<path style=" stroke:none;fill-rule:nonzero;fill:rgb(0%,0%,0%);fill-opacity:1;" d="M 21.59375 15.90625 C 22.25 15.90625 22.738281 15.785156 23.046875 15.546875 C 23.351562 15.3125 23.5625 14.902344 23.675781 14.335938 C 23.777344 13.800781 23.738281 13.429688 23.558594 13.230469 C 23.375 13.023438 22.972656 12.921875 22.371094 12.921875 L 21.324219 12.921875 L 20.742188 15.90625 Z M 18.171875 19.582031 C 18.125 19.582031 18.078125 19.558594 18.046875 19.523438 C 18.015625 19.484375 18.003906 19.433594 18.011719 19.386719 L 19.550781 11.480469 C 19.566406 11.402344 19.632812 11.347656 19.710938 11.347656 L 23.023438 11.347656 C 24.0625 11.347656 24.839844 11.632812 25.324219 12.1875 C 25.816406 12.75 25.964844 13.53125 25.773438 14.515625 C 25.703125 14.90625 25.566406 15.277344 25.375 15.625 C 25.183594 15.96875 24.933594 16.277344 24.644531 16.542969 C 24.285156 16.878906 23.878906 17.121094 23.4375 17.265625 C 23.003906 17.40625 22.445312 17.480469 21.78125 17.480469 L 20.4375 17.480469 L 20.054688 19.449219 C 20.039062 19.527344 19.972656 19.582031 19.894531 19.582031 Z M 18.171875 19.582031 "/>
<path style=" stroke:none;fill-rule:nonzero;fill:rgb(100%,100%,100%);fill-opacity:1;" d="M 21.457031 13.085938 L 22.371094 13.085938 C 23.097656 13.085938 23.351562 13.242188 23.4375 13.339844 C 23.578125 13.496094 23.605469 13.832031 23.515625 14.304688 C 23.410156 14.832031 23.222656 15.207031 22.949219 15.417969 C 22.667969 15.632812 22.210938 15.742188 21.59375 15.742188 L 20.941406 15.742188 Z M 23.023438 11.1875 L 19.710938 11.1875 C 19.554688 11.1875 19.421875 11.296875 19.390625 11.449219 L 17.855469 19.355469 C 17.835938 19.453125 17.859375 19.550781 17.921875 19.625 C 17.984375 19.699219 18.074219 19.742188 18.171875 19.742188 L 19.894531 19.742188 C 20.050781 19.742188 20.183594 19.632812 20.214844 19.480469 L 20.574219 17.640625 L 21.78125 17.640625 C 22.460938 17.640625 23.035156 17.566406 23.488281 17.421875 C 23.949219 17.269531 24.378906 17.015625 24.753906 16.660156 C 25.058594 16.386719 25.316406 16.0625 25.519531 15.703125 C 25.714844 15.355469 25.851562 14.964844 25.933594 14.546875 C 26.136719 13.511719 25.972656 12.679688 25.449219 12.082031 C 24.929688 11.488281 24.113281 11.1875 23.023438 11.1875 Z M 20.546875 16.066406 L 21.59375 16.066406 C 22.289062 16.066406 22.804688 15.9375 23.144531 15.675781 C 23.484375 15.414062 23.714844 14.976562 23.835938 14.363281 C 23.949219 13.777344 23.898438 13.363281 23.679688 13.121094 C 23.460938 12.878906 23.023438 12.757812 22.371094 12.757812 L 21.191406 12.757812 Z M 23.023438 11.511719 C 24.019531 11.511719 24.746094 11.773438 25.203125 12.296875 C 25.660156 12.820312 25.796875 13.546875 25.613281 14.484375 C 25.539062 14.871094 25.414062 15.226562 25.234375 15.542969 C 25.054688 15.863281 24.820312 16.15625 24.53125 16.421875 C 24.1875 16.746094 23.808594 16.972656 23.386719 17.109375 C 22.964844 17.246094 22.429688 17.316406 21.78125 17.316406 L 20.304688 17.316406 L 19.894531 19.417969 L 18.171875 19.417969 L 19.710938 11.511719 L 23.023438 11.511719 "/>
</g>
</svg>
