<?xml version="1.0" encoding="UTF-8"?>
<svg version="1.1" xmlns="http://www.w3.org/2000/svg" width="32" height="32">
<path d="M0 0 C1.98 0 3.96 0 6 0 C6 0.66 6 1.32 6 2 C7.093125 1.938125 8.18625 1.87625 9.3125 1.8125 C13 2 13 2 14.9375 3.0625 C16.55479605 6.01168691 16.18630138 8.70867559 16 12 C16.66 12 17.32 12 18 12 C18 13.98 18 15.96 18 18 C17.34 18 16.68 18 16 18 C16.061875 19.093125 16.12375 20.18625 16.1875 21.3125 C16 25 16 25 14.9375 26.9375 C11.98831309 28.55479605 9.29132441 28.18630138 6 28 C6 28.66 6 29.32 6 30 C4.02 30 2.04 30 0 30 C0 29.34 0 28.68 0 28 C-1.093125 28.061875 -2.18625 28.12375 -3.3125 28.1875 C-7 28 -7 28 -8.9375 26.9375 C-10.55479605 23.98831309 -10.18630138 21.29132441 -10 18 C-10.66 18 -11.32 18 -12 18 C-12 16.02 -12 14.04 -12 12 C-11.34 12 -10.68 12 -10 12 C-10.061875 10.906875 -10.12375 9.81375 -10.1875 8.6875 C-10 5 -10 5 -8.9375 3.0625 C-5.98831309 1.44520395 -3.29132441 1.81369862 0 2 C0 1.34 0 0.68 0 0 Z M2 1 C2 1.99 2 2.98 2 4 C1.01 4.33 0.02 4.66 -1 5 C1.64 5 4.28 5 7 5 C6.01 4.67 5.02 4.34 4 4 C4 3.01 4 2.02 4 1 C3.34 1 2.68 1 2 1 Z M-6 5 C-6.33 5.66 -6.66 6.32 -7 7 C-6.34 7.66 -5.68 8.32 -5 9 C-5 8.34 -5 7.68 -5 7 C-4.34 6.67 -3.68 6.34 -3 6 C-3.99 5.67 -4.98 5.34 -6 5 Z M11 5 C10.34 5.66 9.68 6.32 9 7 C9.66 7 10.32 7 11 7 C11.33 7.66 11.66 8.32 12 9 C12.33 8.01 12.66 7.02 13 6 C12.34 5.67 11.68 5.34 11 5 Z M-3.5 8.5 C-5.62153384 12.03588973 -5.791013 14.97901723 -5 19 C-3.66666667 21.66666667 -3.66666667 21.66666667 -1 23 C3.02098277 23.791013 5.96411027 23.62153384 9.5 21.5 C11.62153384 17.96411027 11.791013 15.02098277 11 11 C9.66666667 8.33333333 9.66666667 8.33333333 7 7 C2.97901723 6.208987 0.03588973 6.37846616 -3.5 8.5 Z M-8 11 C-8 11.99 -8 12.98 -8 14 C-8.99 14 -9.98 14 -11 14 C-11 14.66 -11 15.32 -11 16 C-10.01 16 -9.02 16 -8 16 C-7.67 16.99 -7.34 17.98 -7 19 C-7 16.36 -7 13.72 -7 11 C-7.33 11 -7.66 11 -8 11 Z M13 11 C13 13.64 13 16.28 13 19 C13.33 18.01 13.66 17.02 14 16 C14.99 16 15.98 16 17 16 C17 15.34 17 14.68 17 14 C16.01 14 15.02 14 14 14 C13.67 13.01 13.34 12.02 13 11 Z M-6 21 C-6.33 21.99 -6.66 22.98 -7 24 C-6.01 24.495 -6.01 24.495 -5 25 C-4.34 24.34 -3.68 23.68 -3 23 C-3.66 23 -4.32 23 -5 23 C-5.33 22.34 -5.66 21.68 -6 21 Z M11 21 C11 21.66 11 22.32 11 23 C10.01 23.495 10.01 23.495 9 24 C9.99 24.33 10.98 24.66 12 25 C12.33 24.34 12.66 23.68 13 23 C12.34 22.34 11.68 21.68 11 21 Z M-1 25 C-0.01 25.33 0.98 25.66 2 26 C2 26.99 2 27.98 2 29 C2.66 29 3.32 29 4 29 C4 28.01 4 27.02 4 26 C4.99 25.67 5.98 25.34 7 25 C4.36 25 1.72 25 -1 25 Z " fill="#000000" transform="translate(13,1)"/>
<path d="M0 0 C2.475 0.99 2.475 0.99 5 2 C5 3.32 5 4.64 5 6 C4.01 6.33 3.02 6.66 2 7 C2.33 5.68 2.66 4.36 3 3 C2.34 3 1.68 3 1 3 C0.67 4.65 0.34 6.3 0 8 C-2.475 7.01 -2.475 7.01 -5 6 C-5 4.68 -5 3.36 -5 2 C-4.01 1.67 -3.02 1.34 -2 1 C-2.33 2.32 -2.66 3.64 -3 5 C-2.34 5 -1.68 5 -1 5 C-0.67 3.35 -0.34 1.7 0 0 Z " fill="#000000" transform="translate(16,12)"/>
</svg>
