<?xml version="1.0" encoding="UTF-8"?>
<svg version="1.1" xmlns="http://www.w3.org/2000/svg" width="32" height="32">
<path d="M0 0 C7.26 0 14.52 0 22 0 C22 1.32 22 2.64 22 4 C22.99 4 23.98 4 25 4 C25 10.27 25 16.54 25 23 C21.37 23 17.74 23 14 23 C14 23.99 14 24.98 14 26 C14.99 26 15.98 26 17 26 C17 26.66 17 27.32 17 28 C13.04 28 9.08 28 5 28 C5 27.34 5 26.68 5 26 C5.99 26 6.98 26 8 26 C8 25.01 8 24.02 8 23 C4.37 23 0.74 23 -3 23 C-3 16.73 -3 10.46 -3 4 C-2.01 4 -1.02 4 0 4 C0 2.68 0 1.36 0 0 Z " fill="#D8CDB6" transform="translate(5,2)"/>
<path d="M0 0 C5.28 0 10.56 0 16 0 C16 0.66 16 1.32 16 2 C16.66 2 17.32 2 18 2 C18 6.95 18 11.9 18 17 C9.42 17 0.84 17 -8 17 C-8 12.05 -8 7.1 -8 2 C-7.34 2 -6.68 2 -6 2 C-6 6.29 -6 10.58 -6 15 C-4.02 14.67 -2.04 14.34 0 14 C0 9.38 0 4.76 0 0 Z " fill="#EEEEEE" transform="translate(11,5)"/>
<path d="M0 0 C0.99 0.33 1.98 0.66 3 1 C2.34 1 1.68 1 1 1 C1 5.95 1 10.9 1 16 C9.58 16 18.16 16 27 16 C27 11.05 27 6.1 27 1 C26.34 0.67 25.68 0.34 25 0 C25.99 0 26.98 0 28 0 C28 6.27 28 12.54 28 19 C24.37 19 20.74 19 17 19 C17 19.99 17 20.98 17 22 C17.99 22 18.98 22 20 22 C20 22.66 20 23.32 20 24 C16.04 24 12.08 24 8 24 C8 23.34 8 22.68 8 22 C8.99 22 9.98 22 11 22 C11 21.01 11 20.02 11 19 C7.37 19 3.74 19 0 19 C0 12.73 0 6.46 0 0 Z " fill="#06A1C8" transform="translate(2,6)"/>
<path d="M0 0 C0.721875 0.00257813 1.44375 0.00515625 2.1875 0.0078125 C2.909375 0.00523437 3.63125 0.00265625 4.375 0 C6.1875 0.1328125 6.1875 0.1328125 7.1875 1.1328125 C7.2854057 2.63019374 7.31724864 4.13224142 7.3125 5.6328125 C7.31507812 6.4475 7.31765625 7.2621875 7.3203125 8.1015625 C7.1875 10.1328125 7.1875 10.1328125 6.1875 11.1328125 C4.375 11.265625 4.375 11.265625 2.1875 11.2578125 C1.465625 11.26039062 0.74375 11.26296875 0 11.265625 C-1.8125 11.1328125 -1.8125 11.1328125 -2.8125 10.1328125 C-2.9104057 8.63543126 -2.94224864 7.13338358 -2.9375 5.6328125 C-2.94007812 4.818125 -2.94265625 4.0034375 -2.9453125 3.1640625 C-2.77508045 0.56051352 -2.60782823 0.19109086 0 0 Z " fill="#AE0336" transform="translate(16.8125,6.8671875)"/>
<path d="M0 0 C0.66 0 1.32 0 2 0 C2 4.29 2 8.58 2 13 C9.26 13 16.52 13 24 13 C24 8.71 24 4.42 24 0 C24.66 0 25.32 0 26 0 C26 4.95 26 9.9 26 15 C17.42 15 8.84 15 0 15 C0 10.05 0 5.1 0 0 Z " fill="#F8B300" transform="translate(3,7)"/>
<path d="M0 0 C7.26 0 14.52 0 22 0 C22 0.99 22 1.98 22 3 C14.74 3 7.48 3 0 3 C0 2.01 0 1.02 0 0 Z " fill="#224B6C" transform="translate(5,2)"/>
<path d="M0 0 C1.32 0 2.64 0 4 0 C4 3.96 4 7.92 4 12 C2.68 12 1.36 12 0 12 C0 8.04 0 4.08 0 0 Z " fill="#70879A" transform="translate(6,6)"/>
<path d="M0 0 C2.64 0 5.28 0 8 0 C8 0.99 8 1.98 8 3 C5.36 3 2.72 3 0 3 C0 2.01 0 1.02 0 0 Z " fill="#C71757" transform="translate(15,7)"/>
<path d="M0 0 C3.3 0 6.6 0 10 0 C9.67 0.99 9.34 1.98 9 3 C6.36 3 3.72 3 1 3 C0.67 2.01 0.34 1.02 0 0 Z " fill="#C71A59" transform="translate(14,15)"/>
<path d="M0 0 C1.98 0 3.96 0 6 0 C6 0.99 6 1.98 6 3 C4.02 3 2.04 3 0 3 C0 2.01 0 1.02 0 0 Z " fill="#054A72" transform="translate(13,25)"/>
</svg>
