<?xml version="1.0" encoding="UTF-8"?>
<svg version="1.1" xmlns="http://www.w3.org/2000/svg" width="32" height="32">
<path d="M0 0 C0.66 0.33 1.32 0.66 2 1 C5.34155338 1.27699719 8.68285874 1.44700704 12.03125 1.62109375 C15 2 15 2 17 4 C17.24291992 6.50610352 17.24291992 6.50610352 17.23046875 9.62890625 C17.22853516 10.74587891 17.22660156 11.86285156 17.22460938 13.01367188 C17.20624023 14.7703418 17.20624023 14.7703418 17.1875 16.5625 C17.18685547 17.73748047 17.18621094 18.91246094 17.18554688 20.12304688 C17.14012141 28.85987859 17.14012141 28.85987859 16 30 C13.64686445 30.07271741 11.29166332 30.08370868 8.9375 30.0625 C7.64714844 30.05347656 6.35679688 30.04445313 5.02734375 30.03515625 C4.02832031 30.02355469 3.02929688 30.01195313 2 30 C1.67 30.66 1.34 31.32 1 32 C0.67 31.67 0.34 31.34 0 31 C-3.32947093 30.71461678 -6.65897628 30.55107367 -9.99609375 30.37890625 C-13 30 -13 30 -15 28 C-15.24291992 25.49389648 -15.24291992 25.49389648 -15.23046875 22.37109375 C-15.22853516 21.25412109 -15.22660156 20.13714844 -15.22460938 18.98632812 C-15.21236328 17.81521484 -15.20011719 16.64410156 -15.1875 15.4375 C-15.18685547 14.26251953 -15.18621094 13.08753906 -15.18554688 11.87695312 C-15.14012141 3.14012141 -15.14012141 3.14012141 -14 2 C-11.64686445 1.92728259 -9.29166332 1.91629132 -6.9375 1.9375 C-5.64714844 1.94652344 -4.35679688 1.95554688 -3.02734375 1.96484375 C-2.02832031 1.97644531 -1.02929688 1.98804687 0 2 C0 1.34 0 0.68 0 0 Z " fill="#9897B2" transform="translate(15,0)"/>
<path d="M0 0 C0.66 0.33 1.32 0.66 2 1 C2.02886751 5.14581887 2.04675327 9.29161216 2.0625 13.4375 C2.07087891 14.62150391 2.07925781 15.80550781 2.08789062 17.02539062 C2.09272461 18.71245117 2.09272461 18.71245117 2.09765625 20.43359375 C2.10551147 21.99678345 2.10551147 21.99678345 2.11352539 23.59155273 C2 26 2 26 1 27 C-1.35313555 27.07271741 -3.70833668 27.08370868 -6.0625 27.0625 C-7.35285156 27.05347656 -8.64320312 27.04445313 -9.97265625 27.03515625 C-10.97167969 27.02355469 -11.97070312 27.01195313 -13 27 C-13.33 27.66 -13.66 28.32 -14 29 C-14 28.01 -14 27.02 -14 26 C-9.38 26 -4.76 26 0 26 C-1.11126659 24.66098208 -1.11126659 24.66098208 -3.94140625 24.90234375 C-5.13636719 24.91394531 -6.33132812 24.92554687 -7.5625 24.9375 C-8.76003906 24.94652344 -9.95757812 24.95554687 -11.19140625 24.96484375 C-12.58166016 24.98224609 -12.58166016 24.98224609 -14 25 C-13.67 24.34 -13.34 23.68 -13 23 C-9.7 23 -6.4 23 -3 23 C-3 20.36 -3 17.72 -3 15 C-3.99 15 -4.98 15 -6 15 C-5.67 14.34 -5.34 13.68 -5 13 C-5.66 13 -6.32 13 -7 13 C-7 13.99 -7 14.98 -7 16 C-5.68 16.33 -4.36 16.66 -3 17 C-3 17.66 -3 18.32 -3 19 C-5.97 19 -8.94 19 -12 19 C-12 16.69 -12 14.38 -12 12 C-12.66 12 -13.32 12 -14 12 C-14 9.36 -14 6.72 -14 4 C-9.38 4 -4.76 4 0 4 C0 2.68 0 1.36 0 0 Z " fill="#EBD8E1" transform="translate(30,3)"/>
<path d="M0 0 C4.29 0 8.58 0 13 0 C13 6.93 13 13.86 13 21 C8.71 21 4.42 21 0 21 C0 14.07 0 7.14 0 0 Z " fill="#D2F9FD" transform="translate(2,7)"/>
<path d="M0 0 C0.66 0.33 1.32 0.66 2 1 C4.204364 1.22950319 6.41392173 1.41075933 8.625 1.5625 C9.81351563 1.64628906 11.00203125 1.73007812 12.2265625 1.81640625 C13.59941406 1.90728516 13.59941406 1.90728516 15 2 C15 3.65 15 5.3 15 7 C5.43 7 -4.14 7 -14 7 C-14 13.93 -14 20.86 -14 28 C-14.33 28 -14.66 28 -15 28 C-15.02886751 23.85418113 -15.04675327 19.70838784 -15.0625 15.5625 C-15.07087891 14.37849609 -15.07925781 13.19449219 -15.08789062 11.97460938 C-15.09111328 10.84990234 -15.09433594 9.72519531 -15.09765625 8.56640625 C-15.10289307 7.52427979 -15.10812988 6.48215332 -15.11352539 5.40844727 C-15 3 -15 3 -14 2 C-11.64686445 1.92728259 -9.29166332 1.91629132 -6.9375 1.9375 C-5.64714844 1.94652344 -4.35679688 1.95554688 -3.02734375 1.96484375 C-2.02832031 1.97644531 -1.02929688 1.98804687 0 2 C0 1.34 0 0.68 0 0 Z " fill="#5A5689" transform="translate(15,0)"/>
<path d="M0 0 C0 2.97 0 5.94 0 9 C-2.40545638 10.20272819 -3.94996953 10.10071472 -6.625 10.0625 C-7.85089844 10.04896484 -7.85089844 10.04896484 -9.1015625 10.03515625 C-10.04128906 10.01775391 -10.04128906 10.01775391 -11 10 C-11.33 9.01 -11.66 8.02 -12 7 C-11.34 6.67 -10.68 6.34 -10 6 C-10.66 5.34 -11.32 4.68 -12 4 C-11.01 3.67 -10.02 3.34 -9 3 C-8.566875 2.484375 -8.13375 1.96875 -7.6875 1.4375 C-5.21416874 -0.66941181 -3.1362632 -0.20908421 0 0 Z " fill="#CEEAF2" transform="translate(15,7)"/>
<path d="M0 0 C0.66 0 1.32 0 2 0 C2 2.31 2 4.62 2 7 C4.97 7 7.94 7 11 7 C11 6.34 11 5.68 11 5 C9.35 4.67 7.7 4.34 6 4 C6.33 3.01 6.66 2.02 7 1 C7.66 1 8.32 1 9 1 C9.33 1.66 9.66 2.32 10 3 C10.66 2.01 11.32 1.02 12 0 C12 3.96 12 7.92 12 12 C3.50390625 12.09765625 3.50390625 12.09765625 1 12 C0 11 0 11 -0.09765625 8.49609375 C-0.08605469 7.48675781 -0.07445312 6.47742188 -0.0625 5.4375 C-0.05347656 4.42558594 -0.04445313 3.41367187 -0.03515625 2.37109375 C-0.02355469 1.58863281 -0.01195312 0.80617188 0 0 Z " fill="#BCA7BF" transform="translate(16,15)"/>
<path d="M0 0 C3.63 0 7.26 0 11 0 C11 1.98 11 3.96 11 6 C7.37 6 3.74 6 0 6 C0 4.02 0 2.04 0 0 Z " fill="#74A7D2" transform="translate(17,8)"/>
<path d="M0 0 C3.63 0.33 7.26 0.66 11 1 C11 2.32 11 3.64 11 5 C10.01 5.33 9.02 5.66 8 6 C7.67 6.66 7.34 7.32 7 8 C4.36 8 1.72 8 -1 8 C-0.34 7.67 0.32 7.34 1 7 C1 5.68 1 4.36 1 3 C0.34 3 -0.32 3 -1 3 C-0.67 2.01 -0.34 1.02 0 0 Z " fill="#D4E6EF" transform="translate(4,18)"/>
<path d="M0 0 C2.97 0 5.94 0 9 0 C8.67 1.32 8.34 2.64 8 4 C7.34 3.67 6.68 3.34 6 3 C6.33 2.34 6.66 1.68 7 1 C6.34 1 5.68 1 5 1 C5 1.99 5 2.98 5 4 C6.32 4.33 7.64 4.66 9 5 C9 5.66 9 6.32 9 7 C6.03 7 3.06 7 0 7 C0 4.69 0 2.38 0 0 Z " fill="#B5D1DF" transform="translate(18,15)"/>
<path d="M0 0 C0.33 0.66 0.66 1.32 1 2 C4.96 2 8.92 2 13 2 C13 2.99 13 3.98 13 5 C8.71 5 4.42 5 0 5 C0 3.35 0 1.7 0 0 Z " fill="#F683A7" transform="translate(16,1)"/>
<path d="M0 0 C4.29 0 8.58 0 13 0 C13 0.99 13 1.98 13 3 C9.7 3 6.4 3 3 3 C3 2.34 3 1.68 3 1 C2.34 1 1.68 1 1 1 C0.67 1.66 0.34 2.32 0 3 C0 2.01 0 1.02 0 0 Z " fill="#32A0F2" transform="translate(2,3)"/>
<path d="M0 0 C1.32 0 2.64 0 4 0 C4 0.66 4 1.32 4 2 C4.66 2 5.32 2 6 2 C6 2.99 6 3.98 6 5 C3.36 5 0.72 5 -2 5 C-1.34 4.67 -0.68 4.34 0 4 C0 2.68 0 1.36 0 0 Z " fill="#BDC7D8" transform="translate(5,21)"/>
<path d="M0 0 C0.66 0 1.32 0 2 0 C2 0.66 2 1.32 2 2 C2.99 2.33 3.98 2.66 5 3 C4.34 3.66 3.68 4.32 3 5 C-0.625 4.625 -0.625 4.625 -4 4 C-3.67 3.34 -3.34 2.68 -3 2 C-2.34 2 -1.68 2 -1 2 C-0.67 1.34 -0.34 0.68 0 0 Z " fill="#96A8BF" transform="translate(7,8)"/>
<path d="M0 0 C2.31 0.33 4.62 0.66 7 1 C7 1.66 7 2.32 7 3 C4.03 3 1.06 3 -2 3 C-1.34 2.01 -0.68 1.02 0 0 Z " fill="#D3FAFE" transform="translate(20,19)"/>
</svg>
